<!DOCTYPE svg PUBLIC "-//W3C//DTD SVG 20010904//EN" "http://www.w3.org/TR/2001/REC-SVG-20010904/DTD/svg10.dtd">
<svg version="1.0" xmlns="http://www.w3.org/2000/svg" width="272px" height="185px" viewBox="0 0 2720 1850" preserveAspectRatio="xMidYMid meet">
<g id="layer101" fill="#040404" stroke="none">
<path d="M0 925 l0 -925 1360 0 1360 0 0 925 0 925 -1360 0 -1360 0 0 -925z"/>
</g>
<g id="layer102" fill="#313131" stroke="none">
<path d="M0 925 l0 -925 1360 0 1360 0 0 925 0 925 -1360 0 -1360 0 0 -925z m522 806 c-9 -16 -19 -28 -21 -25 -2 2 -11 -2 -20 -9 -8 -6 -2 5 14 25 36 45 51 50 27 9z m78 10 c19 -5 21 -8 9 -13 -8 -3 -26 0 -40 8 -25 14 -11 17 31 5z m1775 -31 c22 -10 49 -25 60 -34 19 -15 18 -15 -20 -16 -22 0 -60 -10 -85 -22 l-45 -22 60 -6 c104 -10 183 -68 205 -151 30 -110 -53 -222 -180 -242 -30 -5 -32 -4 -13 5 12 6 30 30 39 54 15 40 15 45 -2 81 -23 47 -72 73 -138 73 -48 0 -49 0 -32 -19 10 -11 15 -25 10 -32 -4 -7 -3 -10 3 -6 13 8 23 -15 23 -53 0 -56 -54 -147 -57 -97 -3 35 -24 65 -55 78 -40 16 -67 2 -198 -106 -112 -93 -133 -105 -184 -105 -38 0 -50 -11 -60 -55 -11 -43 -24 -55 -63 -55 -38 0 -71 -15 -90 -39 -17 -22 -16 -6 2 28 8 16 30 41 50 57 28 23 37 40 45 81 12 65 21 80 73 118 23 17 65 52 94 78 32 30 57 46 64 41 8 -4 9 -3 5 4 -4 7 0 22 8 34 11 16 16 46 16 106 0 91 14 135 52 168 43 36 49 38 38 9 -16 -41 -12 -91 9 -116 21 -26 19 -28 40 41 12 40 64 102 101 121 64 33 153 32 225 -1z m-1718 13 c-4 -3 -10 -3 -14 0 -3 4 0 7 7 7 7 0 10 -3 7 -7z m40 -10 c-4 -3 -10 -3 -14 0 -3 4 0 7 7 7 7 0 10 -3 7 -7z m58 -13 c13 -6 15 -9 5 -9 -8 0 -22 4 -30 9 -18 12 -2 12 25 0z m734 -5 c135 -32 257 -129 328 -261 l32 -59 -64 -53 c-35 -28 -68 -52 -73 -52 -6 0 -20 15 -31 34 -30 47 -105 114 -154 137 -89 40 -183 14 -241 -68 -24 -35 -30 -55 -34 -116 -5 -85 11 -146 58 -220 15 -25 25 -49 22 -54 -4 -4 -3 -5 2 -1 10 9 36 -9 36 -24 0 -16 -71 0 -102 23 -15 10 -30 19 -33 19 -9 0 -5 -33 9 -72 8 -21 11 -38 7 -38 -14 1 -40 27 -34 34 4 4 0 4 -8 1 -10 -4 -39 13 -79 45 -34 27 -65 50 -67 50 -3 0 -2 -37 1 -82 l7 -83 -31 35 c-53 60 -140 193 -140 215 0 4 14 -3 31 -15 16 -12 32 -20 35 -18 2 3 -3 22 -12 44 -22 53 -30 197 -14 265 18 76 50 150 63 142 5 -3 7 -2 4 4 -3 5 3 22 14 39 l19 29 0 -33 0 -33 53 54 c104 107 247 147 396 112z m-669 -20 c9 -11 23 -14 49 -9 27 4 32 3 21 -5 -23 -16 -80 -14 -80 3 0 8 -6 17 -12 19 -8 4 -9 6 -2 6 6 1 17 -6 24 -14z m-187 -15 c69 0 44 -23 -62 -56 l-43 -14 4 25 c3 16 0 26 -11 31 -13 5 -11 8 9 15 14 4 34 6 45 3 11 -2 37 -4 58 -4z m-183 -4 c0 -2 -8 -10 -17 -17 -16 -13 -17 -12 -4 4 13 16 21 21 21 13z m477 -3 c-4 -3 -10 -3 -14 0 -3 4 0 7 7 7 7 0 10 -3 7 -7z m47 -12 c3 -4 -7 -19 -22 -32 l-27 -24 23 26 c18 20 20 28 10 32 -9 4 -9 6 -1 6 6 1 14 -3 17 -8z m-554 -24 c0 -2 -10 -12 -22 -23 l-23 -19 19 23 c18 21 26 27 26 19z m37 -24 c-4 -3 -7 0 -7 7 0 7 3 10 7 7 3 -4 3 -10 0 -14z m471 -51 l23 -37 -29 34 c-16 19 -33 31 -39 28 -5 -3 -10 0 -10 7 0 24 32 6 55 -32z m-567 4 c-14 -15 -20 -30 -16 -37 5 -8 4 -10 -4 -5 -6 4 -14 1 -17 -8 -3 -8 -12 -17 -21 -20 -8 -4 4 16 27 44 23 27 44 50 48 50 3 0 -5 -11 -17 -24z m240 4 c21 0 39 -4 39 -10 0 -5 -6 -10 -14 -10 -7 0 -19 -7 -26 -15 -7 -8 -20 -15 -28 -15 -13 0 -12 3 4 15 17 13 14 14 -38 15 -62 0 -88 16 -36 23 18 2 39 2 46 0 8 -1 31 -3 53 -3z m-204 -17 c-4 -3 -7 0 -7 7 0 7 3 10 7 7 3 -4 3 -10 0 -14z m400 0 c-4 -3 -10 -3 -14 0 -3 4 0 7 7 7 7 0 10 -3 7 -7z m100 -10 c-4 -3 -7 0 -7 7 0 7 3 10 7 7 3 -4 3 -10 0 -14z m-130 0 c-4 -3 -10 -3 -14 0 -3 4 0 7 7 7 7 0 10 -3 7 -7z m-30 -10 c-4 -3 -10 -3 -14 0 -3 4 0 7 7 7 7 0 10 -3 7 -7z m-30 -10 c-4 -3 -10 -3 -14 0 -3 4 0 7 7 7 7 0 10 -3 7 -7z m-60 -20 c-4 -3 -10 -3 -14 0 -3 4 0 7 7 7 7 0 10 -3 7 -7z m240 -10 c-4 -3 -7 0 -7 7 0 7 3 10 7 7 3 -4 3 -10 0 -14z m-597 -16 c0 -2 -10 -12 -22 -23 l-23 -19 19 23 c18 21 26 27 26 19z m17 -14 c-4 -3 -7 0 -7 7 0 7 3 10 7 7 3 -4 3 -10 0 -14z m260 10 c-4 -3 -10 -3 -14 0 -3 4 0 7 7 7 7 0 10 -3 7 -7z m-30 -10 c-4 -3 -10 -3 -14 0 -3 4 0 7 7 7 7 0 10 -3 7 -7z m340 -10 c-4 -3 -7 0 -7 7 0 7 3 10 7 7 3 -4 3 -10 0 -14z m-370 0 c-4 -3 -10 -3 -14 0 -3 4 0 7 7 7 7 0 10 -3 7 -7z m263 -25 c11 -18 22 -52 26 -77 6 -39 4 -47 -16 -63 -20 -16 -26 -17 -44 -5 -45 29 -74 135 -44 165 23 23 57 14 78 -20z m-293 15 c-4 -3 -10 -3 -14 0 -3 4 0 7 7 7 7 0 10 -3 7 -7z m-30 -10 c-4 -3 -10 -3 -14 0 -3 4 0 7 7 7 7 0 10 -3 7 -7z m191 -21 c2 -7 -9 -15 -27 -18 -34 -7 -40 -18 -15 -28 15 -6 11 -26 -5 -26 -5 0 -23 13 -42 29 -31 27 -32 30 -14 36 11 4 29 11 40 15 27 12 57 8 63 -8z m-358 -8 c0 -2 -11 -4 -25 -4 -14 0 -25 4 -25 9 0 4 11 6 25 3 14 -2 25 -6 25 -8z m587 -1 c-4 -3 -7 0 -7 7 0 7 3 10 7 7 3 -4 3 -10 0 -14z m-497 -3 c0 -5 -2 -10 -4 -10 -3 0 -8 5 -11 10 -3 6 -1 10 4 10 6 0 11 -4 11 -10z m55 -50 c21 -22 37 -40 34 -40 -3 0 -23 18 -44 40 -21 22 -37 40 -34 40 3 0 23 -18 44 -40z m432 3 c-4 -3 -7 0 -7 7 0 7 3 10 7 7 3 -4 3 -10 0 -14z m-610 -10 c-4 -3 -7 0 -7 7 0 7 3 10 7 7 3 -4 3 -10 0 -14z m658 -24 c-6 -32 -4 -40 5 -34 8 5 11 3 8 -5 -5 -16 -35 -36 -42 -29 -6 6 23 109 31 109 2 0 2 -19 -2 -41z m-608 9 c-3 -8 -6 -5 -6 6 -1 11 2 17 5 13 3 -3 4 -12 1 -19z m352 -4 c28 -36 27 -68 -4 -84 -20 -11 -28 -10 -50 4 -14 9 -25 22 -25 28 0 6 9 3 20 -7 10 -9 26 -15 35 -12 22 9 19 54 -5 67 -11 6 -18 15 -15 21 10 15 22 10 44 -17z m-392 -11 c-4 -3 -7 0 -7 7 0 7 3 10 7 7 3 -4 3 -10 0 -14z m590 -5 c-3 -8 -6 -5 -6 6 -1 11 2 17 5 13 3 -3 4 -12 1 -19z m-307 -63 c19 -19 32 -35 29 -35 -3 0 -20 16 -39 35 -19 19 -32 35 -29 35 3 0 20 -16 39 -35z m297 13 c-3 -8 -6 -5 -6 6 -1 11 2 17 5 13 3 -3 4 -12 1 -19z m-560 -15 c-4 -3 -7 0 -7 7 0 7 3 10 7 7 3 -4 3 -10 0 -14z m33 -3 c6 -11 8 -20 6 -20 -3 0 -10 9 -16 20 -6 11 -8 20 -6 20 3 0 10 -9 16 -20z m517 -32 c-3 -8 -6 -5 -6 6 -1 11 2 17 5 13 3 -3 4 -12 1 -19z m-291 -33 c31 -31 29 -69 -3 -73 -12 -2 -25 -12 -28 -23 -8 -25 -40 -24 -65 1 -21 21 -27 50 -10 50 6 0 10 -8 10 -18 0 -21 36 -46 45 -32 4 6 4 19 0 29 -4 15 -1 18 18 14 48 -9 37 46 -14 66 l-24 10 23 0 c13 1 34 -10 48 -24z m-239 -2 c-4 -3 -7 0 -7 7 0 7 3 10 7 7 3 -4 3 -10 0 -14z m348 -23 c21 -22 37 -40 34 -40 -3 0 -23 18 -44 40 -21 22 -37 40 -34 40 3 0 23 -18 44 -40z m172 13 c-4 -3 -7 0 -7 7 0 7 3 10 7 7 3 -4 3 -10 0 -14z m-510 -20 c-4 -3 -7 0 -7 7 0 7 3 10 7 7 3 -4 3 -10 0 -14z m30 0 c-4 -3 -7 0 -7 7 0 7 3 10 7 7 3 -4 3 -10 0 -14z m1188 -21 c39 -25 40 -26 15 -32 -21 -5 -25 -12 -25 -42 0 -25 -4 -35 -15 -34 -11 1 -15 -11 -15 -49 0 -50 0 -50 -35 -55 -56 -8 -19 -22 76 -28 57 -3 88 -1 98 7 14 12 14 39 1 61 -4 6 10 10 35 10 47 0 90 34 90 72 1 22 2 22 25 -7 24 -29 36 -58 49 -118 l7 -28 -21 21 c-25 25 -33 25 -45 -2 -6 -12 -16 -24 -24 -26 -9 -3 -11 0 -6 8 5 9 4 11 -4 6 -9 -6 -9 -11 -1 -21 13 -15 5 -54 -20 -105 -10 -19 -59 -75 -109 -125 -57 -56 -101 -109 -116 -140 l-24 -50 -1 50 c0 49 2 52 66 115 76 74 124 136 124 158 0 9 -13 -2 -29 -24 -16 -21 -68 -74 -115 -117 -65 -59 -92 -92 -115 -139 l-29 -62 -7 35 c-3 18 -5 59 -3 89 3 48 5 55 23 52 14 -2 16 0 7 6 -9 6 -6 14 14 33 30 28 59 79 45 79 -6 0 -15 -9 -21 -20 -6 -11 -45 -40 -88 -65 -42 -25 -95 -62 -116 -83 l-39 -37 5 40 c4 22 9 48 14 59 6 15 3 17 -12 13 -10 -3 -39 -9 -63 -12 l-44 -7 36 32 c65 56 55 75 -85 154 -27 15 -48 29 -48 31 0 2 18 3 40 3 22 0 51 7 65 16 21 14 25 24 25 61 0 48 9 56 31 28 8 -9 40 -28 72 -43 54 -26 56 -28 30 -34 l-26 -7 24 -23 c35 -34 101 -56 165 -56 66 0 64 15 -4 24 -27 3 -57 12 -67 20 -17 12 -15 13 15 19 26 6 30 10 21 20 -6 8 -8 17 -4 21 4 4 0 4 -9 1 -10 -4 -25 6 -46 32 l-30 38 59 -3 c51 -3 61 -1 84 22 30 30 34 89 8 125 -16 24 -16 24 10 17 32 -8 37 13 10 40 -16 16 -16 16 7 9 14 -4 43 -19 65 -33z m465 -49 c59 -113 146 -207 210 -223 48 -13 125 -7 146 11 10 8 18 8 27 2 25 -20 122 -46 177 -47 l57 -1 -31 -23 c-86 -65 -170 -88 -255 -71 -107 22 -111 22 -111 8 0 -7 8 -21 18 -32 17 -19 17 -19 -13 -4 -16 8 -54 34 -84 56 -63 48 -75 50 -69 16 3 -14 3 -25 0 -25 -15 0 -100 102 -126 150 l-29 55 39 -36 c73 -69 212 -129 296 -129 46 0 31 17 -21 24 -78 10 -184 70 -268 149 -41 39 -84 84 -95 100 -20 28 -20 30 -3 39 9 6 31 23 49 39 17 16 33 28 36 29 3 0 25 -39 50 -87z m-1183 40 c-4 -3 -7 0 -7 7 0 7 3 10 7 7 3 -4 3 -10 0 -14z m-490 -10 c-4 -3 -7 0 -7 7 0 7 3 10 7 7 3 -4 3 -10 0 -14z m10 -30 c-4 -3 -7 0 -7 7 0 7 3 10 7 7 3 -4 3 -10 0 -14z m408 -3 c10 -11 16 -20 13 -20 -3 0 -13 9 -23 20 -10 11 -16 20 -13 20 3 0 13 -9 23 -20z m155 16 c0 -3 -5 -8 -12 -12 -7 -4 -8 -3 -4 4 7 12 16 16 16 8z m-30 -20 c0 -3 -5 -8 -12 -12 -7 -4 -8 -3 -4 4 7 12 16 16 16 8z m-30 -20 c0 -3 -5 -8 -12 -12 -7 -4 -8 -3 -4 4 7 12 16 16 16 8z m-36 -27 c-3 -5 -15 -9 -27 -8 -12 0 -16 3 -9 6 6 2 10 8 7 13 -3 4 4 6 15 3 11 -3 17 -9 14 -14z m125 10 c-17 -11 -39 -12 -39 -1 0 4 12 8 27 9 19 1 22 -1 12 -8z m-559 -35 c0 -21 4 -25 20 -21 11 3 20 1 20 -4 0 -21 -41 -8 -50 17 -12 32 -12 34 0 34 6 0 10 -12 10 -26z m580 23 c0 -1 -28 -29 -62 -62 l-63 -60 60 63 c55 58 65 67 65 59z m-257 -14 c-7 -2 -19 -2 -25 0 -7 3 -2 5 12 5 14 0 19 -2 13 -5z m-90 -10 c-7 -2 -19 -2 -25 0 -7 3 -2 5 12 5 14 0 19 -2 13 -5z m204 -10 c-4 -3 -7 0 -7 7 0 7 3 10 7 7 3 -4 3 -10 0 -14z m-294 0 c-7 -2 -19 -2 -25 0 -7 3 -2 5 12 5 14 0 19 -2 13 -5z m-40 -30 c-7 -2 -19 -2 -25 0 -7 3 -2 5 12 5 14 0 19 -2 13 -5z m294 1 c-3 -3 -12 -4 -19 -1 -8 3 -5 6 6 6 11 1 17 -2 13 -5z m-224 -11 c-7 -2 -19 -2 -25 0 -7 3 -2 5 12 5 14 0 19 -2 13 -5z m104 0 c-4 -3 -10 -3 -14 0 -3 4 0 7 7 7 7 0 10 -3 7 -7z m-44 -10 c-7 -2 -19 -2 -25 0 -7 3 -2 5 12 5 14 0 19 -2 13 -5z m64 -9 c-3 -3 -12 -4 -19 -1 -8 3 -5 6 6 6 11 1 17 -2 13 -5z m70 -10 c-3 -3 -12 -4 -19 -1 -8 3 -5 6 6 6 11 1 17 -2 13 -5z m60 -11 c-4 -3 -10 -3 -14 0 -3 4 0 7 7 7 7 0 10 -3 7 -7z m944 -329 c41 -82 44 -91 44 -168 -1 -67 -6 -91 -28 -138 -47 -96 -135 -155 -247 -165 -69 -7 -156 16 -198 52 -38 32 -46 31 -37 -3 l7 -27 -26 24 c-37 35 -85 112 -92 149 -8 39 -19 41 -29 5 -8 -27 -8 -27 -22 17 -20 62 -12 156 18 217 l24 48 6 -65 c5 -65 15 -100 28 -100 3 0 15 21 26 46 11 26 38 62 60 81 l40 34 8 -108 c11 -144 13 -152 53 -190 30 -28 43 -33 83 -33 33 0 56 6 73 20 14 10 29 16 33 12 5 -4 5 -1 1 6 -4 7 -2 20 6 29 19 23 17 140 -4 178 l-17 30 67 68 c37 37 69 67 73 67 4 0 26 -39 50 -86z"/>
<path d="M712 1374 c3 -22 12 -54 20 -73 13 -33 14 -33 32 -16 12 12 16 26 11 44 -11 46 -30 76 -49 79 -17 4 -18 -1 -14 -34z"/>
<path d="M1597 819 c-18 -11 -52 -68 -44 -76 13 -13 87 54 87 78 0 12 -21 11 -43 -2z"/>
</g>
<g id="layer103" fill="#515151" stroke="none">
<path d="M0 925 l0 -925 1360 0 1360 0 0 925 0 925 -1360 0 -1360 0 0 -925z m585 821 c28 -8 44 -15 37 -15 -7 -1 -10 -6 -7 -12 4 -6 -12 -1 -36 11 -41 21 -43 21 -56 4 -7 -10 -13 -22 -13 -28 0 -5 -3 -6 -7 -3 -3 4 -15 -1 -27 -10 -11 -10 -5 1 14 25 18 23 36 42 39 42 3 0 29 -7 56 -14z m1804 -41 c64 -32 72 -45 27 -45 -39 0 -116 -27 -116 -41 0 -5 21 -9 48 -9 123 -1 225 -111 208 -224 -14 -84 -89 -155 -181 -171 -38 -6 -39 -5 -19 9 12 8 29 31 38 50 25 53 5 104 -54 134 -44 22 -120 30 -120 13 0 -5 7 -14 15 -21 36 -30 30 -132 -10 -177 l-24 -28 -1 29 c0 43 -35 76 -81 76 -33 0 -53 -12 -152 -94 -135 -111 -144 -116 -197 -116 -35 0 -42 -4 -51 -27 -28 -73 -33 -78 -84 -85 -36 -5 -56 -14 -72 -33 -22 -25 -23 -26 -23 -4 0 13 20 41 50 70 36 36 51 59 55 87 10 63 34 94 135 177 54 44 105 92 114 107 11 18 16 51 16 106 0 107 23 161 82 193 16 8 17 7 8 -16 -14 -38 -12 -72 7 -108 l16 -32 10 25 c32 83 45 105 80 135 21 18 55 38 75 44 55 15 145 5 201 -24z m-1732 18 c-4 -3 -10 -3 -14 0 -3 4 0 7 7 7 7 0 10 -3 7 -7z m40 -9 c-3 -3 -12 -4 -19 -1 -8 3 -5 6 6 6 11 1 17 -2 13 -5z m71 -15 c14 0 13 -2 -3 -9 -31 -13 -45 -11 -45 6 0 11 5 14 16 10 9 -3 23 -6 32 -7z m725 -4 c38 -8 92 -28 121 -44 67 -39 152 -128 200 -210 37 -64 37 -65 18 -80 -11 -9 -42 -35 -70 -59 l-50 -42 -37 50 c-92 126 -204 176 -302 135 -52 -22 -72 -42 -99 -100 -47 -99 -26 -222 56 -330 l49 -65 -33 0 c-19 0 -49 11 -70 25 -20 14 -39 25 -41 25 -9 0 -4 -35 9 -72 8 -21 11 -38 7 -38 -11 0 -103 60 -148 98 l-43 34 0 -28 c1 -16 5 -49 10 -74 5 -25 5 -49 1 -53 -9 -9 -92 89 -129 153 -14 25 -27 46 -28 48 -1 2 -13 -1 -26 -8 -22 -11 -22 -11 -3 5 11 9 18 23 17 33 -3 13 -1 14 12 3 9 -8 16 -10 16 -5 0 4 6 -1 14 -12 8 -10 18 -16 22 -12 4 4 2 13 -3 20 -18 23 -33 105 -33 180 0 76 16 158 43 219 10 23 12 40 6 50 -14 22 -11 35 4 14 11 -13 16 -15 22 -6 4 7 2 18 -4 24 -6 6 -11 16 -11 22 0 5 5 2 11 -8 8 -14 14 -16 25 -6 12 9 14 6 14 -19 l0 -31 53 54 c109 108 239 144 400 110z m-669 -20 c3 -8 10 -15 16 -15 6 0 8 5 4 12 -5 8 -2 9 10 5 10 -4 25 -7 34 -7 15 0 15 -2 2 -10 -24 -15 -80 -12 -80 4 0 8 -6 17 -12 19 -8 4 -7 6 3 6 9 1 19 -6 23 -14z m-422 -77 c-32 -40 -57 -79 -55 -85 3 -7 -2 -13 -10 -13 -8 0 -17 -7 -21 -15 -3 -8 -10 -15 -16 -15 -6 0 25 45 70 100 45 55 83 100 86 100 3 0 -21 -33 -54 -72z m231 62 c50 0 44 -18 -13 -40 -88 -34 -90 -34 -90 -6 0 14 -4 26 -10 26 -5 0 -10 4 -10 9 0 12 38 20 65 15 11 -2 37 -4 58 -4z m164 3 c-4 -3 -10 -3 -14 0 -3 4 0 7 7 7 7 0 10 -3 7 -7z m140 -9 c-3 -3 -12 -4 -19 -1 -8 3 -5 6 6 6 11 1 17 -2 13 -5z m-486 -70 c-16 -33 -30 -56 -31 -52 0 11 53 118 58 114 2 -2 -10 -30 -27 -62z m529 46 c8 -15 7 -19 -2 -15 -7 2 -26 -6 -42 -20 l-29 -24 27 -36 c16 -20 26 -38 24 -40 -2 -2 -12 9 -23 26 -22 32 -31 36 -38 17 -2 -7 -2 -2 0 11 3 19 1 22 -14 16 -52 -21 -127 -45 -130 -41 -2 2 25 14 61 26 37 12 64 26 61 31 -4 5 1 6 10 3 22 -9 92 46 74 57 -10 6 -10 9 -2 9 7 0 17 -9 23 -20z m-125 -38 c-3 -3 -11 0 -18 7 -9 10 -8 11 6 5 10 -3 15 -9 12 -12z m-454 -49 c-12 -20 -14 -14 -5 12 4 9 9 14 11 11 3 -2 0 -13 -6 -23z m217 7 c31 0 28 -12 -9 -32 -38 -22 -56 -23 -39 -3 11 13 5 15 -44 15 -31 0 -56 4 -56 9 0 16 23 21 75 16 28 -3 60 -5 73 -5z m119 -37 c-4 -3 -10 -3 -14 0 -3 4 0 7 7 7 7 0 10 -3 7 -7z m-30 -10 c-4 -3 -10 -3 -14 0 -3 4 0 7 7 7 7 0 10 -3 7 -7z m-30 -10 c-4 -3 -10 -3 -14 0 -3 4 0 7 7 7 7 0 10 -3 7 -7z m210 -15 c-3 -8 -6 -5 -6 6 -1 11 2 17 5 13 3 -3 4 -12 1 -19z m-240 5 c-4 -3 -10 -3 -14 0 -3 4 0 7 7 7 7 0 10 -3 7 -7z m-262 -43 c-14 -27 -15 -34 -3 -41 11 -7 10 -9 -2 -9 -8 0 9 -25 40 -57 l55 -58 -50 48 c-28 26 -54 47 -58 47 -3 0 -8 -51 -10 -112 l-3 -113 -1 121 c-1 101 2 128 19 168 12 25 23 45 25 42 3 -2 -3 -19 -12 -36z m225 30 c-8 -5 -19 -10 -25 -10 -5 0 -3 5 5 10 8 5 20 10 25 10 6 0 3 -5 -5 -10z m-320 -13 c0 -2 -12 -14 -27 -28 l-28 -24 24 28 c23 25 31 32 31 24z m30 -1 c0 -3 -4 -8 -10 -11 -5 -3 -10 -1 -10 4 0 6 5 11 10 11 6 0 10 -2 10 -4z m247 -3 c-4 -3 -10 -3 -14 0 -3 4 0 7 7 7 7 0 10 -3 7 -7z m310 -25 c-3 -7 -5 -2 -5 12 0 14 2 19 5 13 2 -7 2 -19 0 -25z m-340 15 c-4 -3 -10 -3 -14 0 -3 4 0 7 7 7 7 0 10 -3 7 -7z m-30 -10 c-4 -3 -10 -3 -14 0 -3 4 0 7 7 7 7 0 10 -3 7 -7z m265 -30 c10 -17 21 -54 25 -82 5 -47 4 -51 -21 -62 -22 -10 -29 -9 -47 7 -40 35 -60 113 -43 159 11 28 65 15 86 -22z m-295 20 c-4 -3 -10 -3 -14 0 -3 4 0 7 7 7 7 0 10 -3 7 -7z m-30 -10 c-4 -3 -10 -3 -14 0 -3 4 0 7 7 7 7 0 10 -3 7 -7z m-30 -10 c-4 -3 -10 -3 -14 0 -3 4 0 7 7 7 7 0 10 -3 7 -7z m220 -9 c2 -7 -10 -17 -28 -23 l-31 -11 43 -33 c37 -27 44 -39 44 -66 0 -20 -7 -38 -16 -44 -20 -13 -68 -1 -76 19 -9 24 5 29 26 10 24 -22 41 -13 41 19 0 18 -11 31 -44 50 -23 14 -51 34 -61 45 -17 19 -17 20 1 26 11 3 28 10 39 14 26 12 57 8 62 -6z m230 -16 c-3 -7 -5 -2 -5 12 0 14 2 19 5 13 2 -7 2 -19 0 -25z m-577 4 c-24 -2 -48 -9 -52 -15 -5 -8 -8 -5 -8 8 0 18 5 20 52 15 l53 -5 -45 -3z m567 -54 c-3 -7 -5 -2 -5 12 0 14 2 19 5 13 2 -7 2 -19 0 -25z m-610 0 c-3 -8 -6 -5 -6 6 -1 11 2 17 5 13 3 -3 4 -12 1 -19z m661 -23 c-2 -19 1 -36 7 -38 14 -5 -13 -37 -32 -37 -10 0 -13 6 -9 16 3 9 9 28 12 42 9 42 13 52 20 52 3 0 4 -16 2 -35z m-611 3 c-3 -8 -6 -5 -6 6 -1 11 2 17 5 13 3 -3 4 -12 1 -19z m-40 -15 c-4 -3 -7 0 -7 7 0 7 3 10 7 7 3 -4 3 -10 0 -14z m590 -15 c-3 -7 -5 -2 -5 12 0 14 2 19 5 13 2 -7 2 -19 0 -25z m-580 -20 c-3 -8 -6 -5 -6 6 -1 11 2 17 5 13 3 -3 4 -12 1 -19z m503 -246 c0 -6 -121 102 -215 193 -44 42 -14 17 68 -56 81 -73 147 -135 147 -137z m-445 248 c3 -5 4 -10 1 -10 -3 0 -8 5 -11 10 -3 6 -4 10 -1 10 3 0 8 -4 11 -10z m512 -22 c-3 -8 -6 -5 -6 6 -1 11 2 17 5 13 3 -3 4 -12 1 -19z m-560 -15 c-4 -3 -7 0 -7 7 0 7 3 10 7 7 3 -4 3 -10 0 -14z m38 -10 l18 -28 -21 19 c-12 11 -22 23 -22 28 0 14 7 9 25 -19z m512 -25 c-3 -8 -6 -5 -6 6 -1 11 2 17 5 13 3 -3 4 -12 1 -19z m-540 -5 c-4 -3 -7 0 -7 7 0 7 3 10 7 7 3 -4 3 -10 0 -14z m253 -30 c26 -33 23 -67 -6 -71 -12 -2 -24 -12 -27 -23 -11 -41 -87 -8 -87 38 0 21 14 15 25 -9 6 -13 18 -24 29 -26 16 -3 18 0 12 22 -6 24 -4 26 17 21 16 -5 26 -2 30 8 6 15 -12 35 -48 55 -19 11 -18 11 7 12 17 0 34 -9 48 -27z m-243 0 c-4 -3 -7 0 -7 7 0 7 3 10 7 7 3 -4 3 -10 0 -14z m520 -15 c-3 -7 -5 -2 -5 12 0 14 2 19 5 13 2 -7 2 -19 0 -25z m-510 -15 c-4 -3 -7 0 -7 7 0 7 3 10 7 7 3 -4 3 -10 0 -14z m30 0 c-4 -3 -7 0 -7 7 0 7 3 10 7 7 3 -4 3 -10 0 -14z m1174 -9 c14 -7 31 -19 37 -27 10 -12 8 -16 -14 -21 -23 -6 -26 -11 -22 -40 3 -25 0 -33 -12 -32 -19 1 -26 -45 -11 -73 12 -22 -2 -31 -47 -31 -23 -1 -24 -2 -10 -11 23 -13 139 -23 173 -15 24 6 27 11 23 41 -4 31 -1 35 19 35 47 0 91 26 98 60 6 26 9 29 22 19 21 -18 50 -79 58 -124 l8 -40 -25 23 c-28 25 -38 28 -38 8 0 -7 -6 -19 -14 -25 -8 -6 -17 -31 -20 -55 -9 -55 -50 -113 -144 -200 -50 -48 -81 -87 -102 -130 l-29 -61 -1 55 c0 55 0 56 66 120 77 75 124 136 124 159 -1 12 -3 11 -11 -4 -6 -11 -62 -70 -124 -130 -93 -91 -116 -119 -131 -163 -23 -64 -32 -49 -33 54 l-1 71 45 45 c25 25 45 53 45 63 0 14 -4 13 -20 -8 -11 -14 -55 -46 -98 -70 -44 -25 -93 -62 -110 -82 l-32 -36 0 36 c0 20 5 46 11 57 11 20 9 20 -50 13 l-60 -7 34 37 c53 55 48 67 -56 127 l-91 53 57 5 c69 7 88 26 83 87 -2 25 1 39 7 35 6 -3 37 -23 69 -44 33 -21 69 -38 80 -39 15 0 12 -4 -12 -13 -32 -11 -33 -12 -15 -28 38 -33 90 -51 158 -55 51 -3 66 -2 55 6 -8 6 -26 11 -40 11 -14 0 -43 9 -65 19 l-40 18 39 7 40 8 -32 24 c-17 14 -40 37 -51 52 l-19 27 39 -3 c52 -5 84 4 109 30 25 27 26 84 3 117 -16 24 -16 24 10 19 31 -6 35 7 10 35 -17 19 -17 19 7 12 14 -4 37 -13 51 -21z m474 -50 c46 -88 117 -179 163 -210 45 -30 117 -39 171 -21 39 14 46 14 84 -3 50 -22 156 -41 189 -33 21 5 21 3 -7 -20 -85 -73 -193 -99 -295 -73 -73 19 -96 10 -64 -25 l19 -22 -34 18 c-19 9 -57 35 -84 56 -27 22 -53 39 -58 39 -13 0 -11 -34 4 -49 10 -11 8 -12 -8 -3 -28 15 -88 80 -117 127 -43 70 -41 79 9 36 55 -49 147 -94 221 -110 65 -14 82 -14 82 -1 0 6 -11 10 -25 10 -79 0 -212 78 -315 184 -83 84 -88 94 -60 113 11 8 33 26 48 39 15 13 29 23 32 24 3 0 23 -34 45 -76z m-1628 -16 c-2 -18 -4 -6 -4 27 0 33 2 48 4 33 2 -15 2 -42 0 -60z m450 40 c-3 -7 -5 -2 -5 12 0 14 2 19 5 13 2 -7 2 -19 0 -25z m-490 0 c-3 -8 -6 -5 -6 6 -1 11 2 17 5 13 3 -3 4 -12 1 -19z m22 -68 c0 -9 -4 -8 -9 5 -5 11 -9 27 -9 35 0 9 4 8 9 -5 5 -11 9 -27 9 -35z m458 28 c-3 -8 -6 -5 -6 6 -1 11 2 17 5 13 3 -3 4 -12 1 -19z m63 -2 c0 -12 -84 -56 -107 -55 -16 0 -21 3 -13 6 8 2 22 7 30 10 8 3 20 7 27 9 6 1 22 9 35 18 23 17 28 19 28 12z m60 0 c0 -3 -5 -8 -12 -12 -7 -4 -8 -3 -4 4 7 12 16 16 16 8z m0 -36 c-20 -13 -53 -13 -45 0 3 5 12 7 19 4 8 -3 17 0 21 6 4 6 10 9 13 5 4 -3 0 -10 -8 -15z m-560 -30 c0 -16 7 -20 31 -20 17 0 28 -4 24 -10 -3 -5 -17 -10 -31 -10 -17 0 -27 8 -34 26 -12 32 -12 34 0 34 6 0 10 -9 10 -20z m525 -40 c-32 -33 -60 -58 -62 -56 -4 4 109 115 117 116 2 0 -22 -27 -55 -60z m-197 43 c-10 -2 -26 -2 -35 0 -10 3 -2 5 17 5 19 0 27 -2 18 -5z m-90 -10 c-10 -2 -26 -2 -35 0 -10 3 -2 5 17 5 19 0 27 -2 18 -5z m199 -10 c-4 -3 -7 0 -7 7 0 7 3 10 7 7 3 -4 3 -10 0 -14z m-289 0 c-10 -2 -26 -2 -35 0 -10 3 -2 5 17 5 19 0 27 -2 18 -5z m312 -48 c0 -5 -5 -3 -10 5 -5 8 -10 20 -10 25 0 6 5 3 10 -5 5 -8 10 -19 10 -25z m-352 18 c-10 -2 -26 -2 -35 0 -10 3 -2 5 17 5 19 0 27 -2 18 -5z m161 -2 c11 -7 5 -11 -22 -16 -20 -4 -42 -5 -49 -2 -7 3 2 6 20 6 19 1 31 5 27 11 -8 12 5 13 24 1z m134 2 c-7 -2 -19 -2 -25 0 -7 3 -2 5 12 5 14 0 19 -2 13 -5z m-230 -10 c-7 -2 -21 -2 -30 0 -10 3 -4 5 12 5 17 0 24 -2 18 -5z m130 -20 c-7 -2 -19 -2 -25 0 -7 3 -2 5 12 5 14 0 19 -2 13 -5z m70 -10 c-7 -2 -21 -2 -30 0 -10 3 -4 5 12 5 17 0 24 -2 18 -5z m60 -10 c-7 -2 -19 -2 -25 0 -7 3 -2 5 12 5 14 0 19 -2 13 -5z m923 -288 c110 -189 67 -395 -100 -483 -44 -23 -63 -27 -141 -27 -81 0 -95 3 -142 29 -29 16 -53 33 -53 38 0 4 -5 8 -11 8 -7 0 -9 -10 -4 -28 l7 -27 -32 30 c-40 37 -90 122 -90 153 0 12 -4 22 -10 22 -5 0 -10 -9 -10 -19 0 -39 -18 -30 -30 14 -18 63 -8 160 21 215 l23 45 6 -65 c4 -36 11 -73 17 -84 9 -16 13 -13 32 27 12 25 41 63 64 84 l42 38 6 -60 c4 -33 7 -84 8 -113 2 -98 54 -162 131 -162 105 0 164 138 106 248 -14 27 -14 28 52 95 37 37 70 67 74 67 4 0 19 -20 34 -45z"/>
<path d="M560 1635 c-7 -9 -10 -18 -7 -21 8 -8 77 16 77 27 0 15 -57 10 -70 -6z"/>
<path d="M710 1393 c0 -31 26 -107 38 -111 6 -2 16 6 22 18 8 16 7 30 -9 65 -20 45 -51 62 -51 28z"/>
<path d="M1593 815 c-24 -17 -48 -75 -31 -75 13 0 78 65 78 79 0 15 -22 14 -47 -4z"/>
</g>
<g id="layer104" fill="#707070" stroke="none">
<path d="M0 925 l0 -925 1360 0 1360 0 0 925 0 925 -1360 0 -1360 0 0 -925z m714 789 c99 -25 198 -50 218 -55 30 -8 42 -18 59 -50 19 -38 22 -40 38 -25 16 15 17 14 13 -14 -2 -17 -2 -30 2 -30 3 0 24 20 47 45 25 27 71 60 114 81 121 60 271 57 397 -7 63 -32 164 -135 211 -213 l41 -68 -35 -29 c-19 -16 -50 -43 -70 -59 l-36 -30 -48 61 c-26 33 -72 77 -103 97 -49 33 -63 37 -116 37 -75 0 -116 -22 -156 -84 -68 -102 -45 -255 57 -379 l37 -45 -46 5 c-25 3 -61 16 -78 28 l-32 23 7 -34 c4 -19 14 -47 22 -62 l14 -28 -43 22 c-47 24 -97 59 -142 98 l-29 26 7 -54 c4 -30 10 -67 13 -82 3 -18 1 -29 -5 -29 -10 0 -91 92 -112 128 -8 15 -19 8 -71 -45 -33 -35 -62 -63 -64 -63 -6 0 -25 63 -21 68 3 2 8 -7 12 -22 3 -14 9 -26 13 -26 4 0 31 24 60 54 36 36 52 60 48 70 -8 20 -21 20 -37 1 -15 -18 1 -20 18 -3 9 9 12 9 12 0 0 -13 -49 -36 -58 -27 -3 3 7 19 23 35 43 45 24 47 -45 5 -51 -31 -60 -40 -55 -58 5 -19 5 -20 -5 -4 -6 9 -23 18 -38 18 -21 1 -22 2 -7 6 30 7 35 15 50 74 11 43 13 46 9 14 -3 -22 -8 -49 -11 -60 -6 -19 -5 -19 22 -1 16 10 43 27 62 38 29 18 31 22 21 41 -11 22 -11 22 11 3 11 -11 21 -15 21 -10 0 5 4 2 10 -6 17 -27 18 -5 4 50 -19 70 -14 249 8 301 16 36 16 37 -15 75 -31 38 -31 38 -39 13 -6 -22 -7 -21 -5 6 2 34 6 34 -92 1 -41 -14 -76 -24 -78 -22 -2 2 32 16 77 31 45 15 80 28 78 30 -2 2 -40 22 -85 44 -46 23 -83 44 -83 45 0 2 11 3 24 2 13 0 22 -4 20 -8 -2 -3 29 -23 69 -44 l74 -37 37 28 c34 26 36 29 19 39 -10 5 -43 9 -74 9 -53 -2 -140 14 -94 16 18 2 19 2 3 12 -12 7 -24 7 -37 0 -15 -8 -22 -6 -32 9 -8 11 -31 21 -54 25 l-40 6 38 -21 c69 -38 38 -31 -44 11 -45 22 -85 37 -89 32 -13 -15 -160 -336 -156 -340 3 -3 77 20 167 51 89 31 164 55 166 53 2 -2 -72 -30 -164 -62 -93 -32 -169 -59 -171 -60 -2 -2 87 -85 197 -185 111 -100 201 -185 201 -188 0 -3 -12 6 -27 19 -209 191 -374 339 -378 339 -3 0 -5 -92 -5 -205 l0 -205 36 0 c19 0 33 -4 30 -8 -8 -13 154 -34 169 -22 6 5 22 6 35 3 22 -6 22 -7 4 -13 -13 -5 2 -10 44 -15 35 -4 61 -9 58 -12 -7 -7 -369 47 -378 56 -9 8 -58 170 -57 186 1 6 11 -21 24 -60 l23 -70 1 188 1 187 -56 0 -56 0 6 -32 c5 -25 4 -28 -3 -13 -21 44 -10 64 135 244 81 99 149 181 151 181 3 0 87 -21 187 -46z m1616 15 c25 -5 63 -22 85 -37 l40 -27 -30 -3 c-41 -4 -125 -32 -125 -42 0 -4 20 -8 44 -8 64 -2 121 -29 166 -79 104 -119 33 -287 -135 -319 l-40 -7 33 32 c78 78 12 191 -113 191 -37 0 -44 -10 -20 -30 36 -30 30 -132 -10 -177 l-24 -28 -1 26 c0 44 -36 79 -80 79 -33 0 -52 -12 -151 -93 -131 -108 -146 -117 -191 -117 -44 0 -55 -9 -70 -54 -15 -44 -26 -52 -82 -61 -21 -4 -49 -17 -62 -30 -23 -23 -24 -23 -24 -4 0 12 22 44 50 72 38 39 51 60 56 92 8 59 26 81 132 169 122 101 132 118 132 226 0 90 16 135 63 172 32 26 35 22 24 -25 -7 -33 -6 -51 7 -82 l17 -40 24 60 c50 124 151 175 285 144z m-1697 -69 c33 0 46 -4 41 -11 -7 -13 -75 -43 -116 -53 -25 -6 -28 -4 -28 19 0 14 -4 25 -10 25 -5 0 -10 5 -10 10 0 6 9 10 19 10 11 0 23 5 27 11 4 8 9 8 17 0 6 -6 33 -11 60 -11z m-54 -106 c33 -4 61 -10 61 -15 0 -8 -57 -39 -73 -39 -5 0 -4 7 3 15 11 13 5 15 -44 15 -52 0 -66 7 -49 23 8 9 24 9 102 1z m275 -243 c-21 -100 -39 -179 -42 -177 -2 3 13 86 34 185 20 100 39 179 41 177 3 -2 -12 -86 -33 -185z m-75 83 c8 -16 16 -50 19 -75 4 -40 1 -49 -17 -59 -31 -16 -54 -5 -79 39 -22 38 -29 105 -14 127 22 33 67 17 91 -32z m-142 -1 c3 -7 -10 -18 -28 -25 l-32 -13 36 -19 c83 -45 77 -143 -8 -122 -26 7 -43 31 -31 43 3 3 14 -1 24 -10 24 -22 47 -7 38 26 -3 14 -18 29 -35 36 -16 7 -41 25 -56 41 l-28 29 24 9 c13 5 31 12 39 15 23 9 53 3 57 -10z m271 -88 c-2 -19 1 -36 7 -38 5 -2 2 -13 -9 -26 -28 -31 -38 -12 -24 47 14 59 32 71 26 17z m-604 10 c-4 -8 -8 -15 -10 -15 -2 0 -4 7 -4 15 0 8 4 15 10 15 5 0 7 -7 4 -15z m-26 -85 c0 -8 -6 1 -13 20 -7 19 -13 42 -13 50 0 8 6 -1 13 -20 7 -19 13 -42 13 -50z m42 40 c6 -11 8 -20 6 -20 -3 0 -10 9 -16 20 -6 11 -8 20 -6 20 3 0 10 -9 16 -20z m-5 -57 c10 -16 12 -22 4 -15 -18 16 -29 15 -29 -3 0 -8 4 -15 10 -15 5 0 7 -7 3 -17 -5 -14 -8 -13 -15 6 -7 19 -2 71 7 71 1 0 11 -12 20 -27z m224 -57 c28 -30 25 -70 -5 -74 -12 -2 -24 -12 -27 -23 -10 -39 -87 -11 -87 33 0 25 13 23 25 -4 6 -13 18 -24 29 -26 16 -3 18 0 12 22 -5 22 -3 26 16 23 31 -3 31 33 0 49 -35 17 -38 24 -10 24 13 0 35 -11 47 -24z m-202 -33 c-4 -3 -7 0 -7 7 0 7 3 10 7 7 3 -4 3 -10 0 -14z m1156 1 c18 -9 40 -23 50 -32 16 -14 16 -16 -5 -27 -17 -8 -23 -19 -22 -43 2 -26 -2 -32 -18 -32 -17 0 -19 -5 -16 -32 3 -18 8 -41 13 -50 6 -15 2 -18 -31 -18 -61 0 -27 -18 48 -26 36 -4 79 -4 93 0 25 6 27 10 22 41 -5 31 -3 35 17 35 45 0 84 21 94 50 6 16 8 31 5 34 -4 3 -1 6 5 6 26 0 82 -103 82 -152 0 -19 -1 -19 -27 2 -27 21 -27 21 -34 2 -4 -11 -12 -23 -18 -27 -6 -3 -11 -18 -11 -33 -1 -52 -38 -110 -137 -208 -54 -54 -104 -112 -110 -129 -6 -16 -14 -39 -19 -50 -6 -16 -8 -13 -14 20 -4 22 -4 49 0 60 4 11 46 58 92 105 47 47 87 94 90 105 6 22 -183 -160 -224 -215 -14 -19 -31 -53 -38 -75 -13 -38 -13 -39 -22 -15 -5 14 -10 54 -11 90 -1 65 -1 66 46 113 26 25 47 54 47 63 0 12 -5 10 -21 -10 -11 -15 -56 -47 -99 -72 -44 -25 -93 -61 -109 -80 l-31 -35 0 36 c0 20 5 46 11 57 11 20 9 20 -52 13 l-62 -7 37 36 c49 49 47 69 -11 102 -27 15 -68 40 -93 55 l-45 29 51 0 c70 0 97 26 92 86 -2 24 -2 44 -1 44 2 0 24 -15 50 -33 27 -19 66 -41 88 -50 l40 -16 -34 -7 -34 -7 26 -23 c34 -29 117 -54 171 -53 l41 1 -50 15 c-27 7 -61 19 -75 25 -25 11 -25 11 13 21 l38 9 -41 35 c-22 19 -45 43 -50 53 -8 16 -5 17 35 12 99 -11 153 58 110 142 -15 28 -15 28 10 24 29 -6 31 -1 9 30 -18 26 -6 28 39 6z m468 -16 c23 -56 128 -206 166 -237 53 -43 127 -59 188 -38 44 14 50 14 93 -6 27 -11 80 -23 126 -26 l78 -6 -46 -33 c-56 -41 -141 -72 -194 -72 -21 0 -62 7 -91 16 -64 19 -85 8 -51 -26 l22 -22 -24 7 c-12 4 -52 29 -87 56 -45 34 -68 46 -75 39 -7 -7 -6 -17 2 -31 12 -18 11 -19 -5 -10 -41 22 -153 164 -153 194 0 4 21 -10 48 -31 58 -49 133 -87 209 -107 66 -17 83 -19 83 -6 0 5 -20 12 -45 16 -93 13 -233 107 -321 214 l-53 64 44 29 c25 17 47 34 51 39 10 17 22 9 35 -23z m-1258 -125 c-13 -2 -35 -2 -50 0 -16 2 -5 4 22 4 28 0 40 -2 28 -4z m-100 -10 c-13 -2 -33 -2 -45 0 -13 2 -3 4 22 4 25 0 35 -2 23 -4z m-90 -10 c-13 -2 -33 -2 -45 0 -13 2 -3 4 22 4 25 0 35 -2 23 -4z m174 -10 c-4 -3 -10 -3 -14 0 -3 4 0 7 7 7 7 0 10 -3 7 -7z m92 -19 c10 -9 -55 -3 -69 6 -10 6 -2 7 25 3 22 -3 42 -7 44 -9z m19 -51 c-10 -2 -26 -2 -35 0 -10 3 -2 5 17 5 19 0 27 -2 18 -5z m917 -286 c98 -168 82 -337 -41 -446 -98 -86 -276 -96 -371 -21 -33 26 -42 25 -36 -2 5 -20 0 -17 -34 15 -35 33 -60 76 -89 152 -7 18 -8 17 -12 -7 -9 -71 -42 3 -42 95 0 69 14 123 41 158 l19 24 0 -55 c1 -30 7 -68 14 -85 l13 -30 20 45 c11 25 40 63 64 85 l44 40 7 -55 c3 -30 7 -80 7 -110 3 -104 53 -170 131 -170 100 0 152 104 112 224 l-19 58 66 64 c36 35 69 64 73 64 4 0 19 -19 33 -43z"/>
<path d="M613 1723 c4 -3 10 -3 14 0 3 4 0 7 -7 7 -7 0 -10 -3 -7 -7z"/>
<path d="M437 1638 c-31 -40 -67 -83 -79 -95 -17 -17 -19 -23 -8 -23 9 -1 4 -8 -12 -21 -28 -20 -40 -47 -15 -33 8 5 7 2 -2 -10 -9 -11 -17 -13 -21 -6 -6 10 -15 3 -49 -42 -12 -17 -9 -18 43 -18 l56 0 75 157 c41 86 74 158 72 160 -2 2 -29 -30 -60 -69z m-36 -95 c-12 -20 -14 -14 -5 12 4 9 9 14 11 11 3 -2 0 -13 -6 -23z"/>
<path d="M937 1595 l-28 -24 30 -41 c27 -37 31 -39 40 -23 6 12 6 25 0 34 -5 7 -9 19 -9 24 1 6 5 2 11 -8 18 -32 29 -7 12 28 -9 19 -19 35 -22 35 -3 0 -18 -12 -34 -25z"/>
<path d="M560 1630 c-13 -24 -10 -24 35 -6 43 18 44 26 5 26 -19 0 -33 -7 -40 -20z"/>
<path d="M714 1395 c-8 -21 26 -117 39 -112 19 6 20 63 2 96 -17 34 -32 40 -41 16z"/>
<path d="M1585 805 c-23 -22 -34 -55 -19 -55 17 0 46 24 59 50 14 27 14 30 0 30 -9 0 -27 -11 -40 -25z"/>
</g>
<g id="layer105" fill="#919191" stroke="none">
<path d="M0 925 l0 -925 1360 0 1360 0 0 925 0 925 -1360 0 -1360 0 0 -925z m748 781 c116 -30 216 -57 222 -61 7 -4 19 -23 27 -42 14 -34 15 -35 34 -17 19 17 19 16 13 -17 l-7 -34 56 53 c119 111 274 149 425 103 82 -24 173 -83 222 -141 35 -42 110 -158 110 -170 0 -8 -131 -120 -140 -120 -3 0 -13 12 -22 28 -48 81 -174 172 -239 172 -77 0 -158 -63 -185 -143 -32 -95 -5 -206 77 -314 l40 -53 -38 0 c-21 0 -51 9 -68 20 -16 11 -33 20 -38 20 -9 0 2 -47 20 -83 l14 -28 -50 26 c-28 13 -75 45 -106 70 -62 51 -63 49 -44 -49 7 -31 9 -59 5 -63 -9 -9 -42 23 -95 92 -45 60 -46 60 -74 47 -40 -19 -46 -7 -13 27 41 43 17 45 -46 3 l-55 -37 15 -45 c8 -25 16 -47 19 -49 2 -3 29 20 60 50 l57 54 -54 -60 c-30 -33 -59 -63 -65 -66 -13 -7 -457 60 -468 71 -11 10 -127 406 -127 432 0 19 285 378 300 378 4 0 102 -24 218 -54z m1647 0 c63 -31 70 -46 23 -47 -39 -1 -100 -21 -105 -35 -2 -5 18 -10 44 -12 61 -3 139 -47 171 -95 50 -76 37 -182 -30 -244 -31 -29 -106 -63 -141 -63 l-28 0 36 31 c30 26 35 37 35 74 0 32 -6 48 -26 69 -28 27 -79 46 -126 46 l-28 0 20 -32 c26 -43 26 -108 0 -158 -23 -46 -40 -52 -40 -15 0 33 -42 75 -75 75 -37 0 -56 -12 -178 -113 -88 -73 -115 -90 -150 -94 -61 -8 -75 -18 -87 -63 -9 -33 -16 -41 -48 -50 -20 -5 -45 -10 -55 -10 -10 0 -29 -11 -42 -25 l-25 -24 0 25 c0 17 16 39 50 71 33 30 50 54 50 69 0 59 31 102 131 185 55 44 107 93 117 107 12 18 18 55 22 127 6 110 24 151 80 180 l29 15 -15 -35 c-18 -44 -18 -57 2 -103 l16 -37 18 53 c24 73 55 108 125 143 56 28 154 21 230 -15z m-867 -603 c17 -13 32 -29 32 -35 0 -6 -3 -8 -6 -5 -4 3 -15 2 -26 -4 -15 -8 -18 -17 -13 -40 6 -25 4 -29 -16 -29 -19 0 -21 -4 -16 -32 3 -18 8 -41 12 -50 6 -15 2 -18 -25 -18 -17 0 -29 -4 -26 -9 8 -13 119 -24 157 -16 29 7 31 10 26 40 -5 32 -4 33 35 38 50 7 78 32 78 70 l0 30 26 -24 c34 -32 52 -67 60 -120 7 -43 7 -44 -13 -26 -11 9 -23 17 -27 17 -16 0 -45 -46 -46 -70 -1 -52 -41 -115 -133 -204 -89 -88 -104 -107 -128 -171 l-12 -30 -8 30 c-17 57 -4 86 74 156 39 37 80 82 91 100 15 28 5 21 -55 -36 -154 -148 -188 -191 -192 -245 -3 -37 -16 -20 -27 37 -16 77 -8 121 30 151 17 13 38 38 46 55 l16 32 -28 -27 c-16 -14 -64 -47 -106 -73 -43 -25 -89 -61 -103 -78 l-25 -32 0 38 c0 21 5 47 11 58 10 19 8 20 -53 14 -62 -6 -63 -6 -42 12 12 10 29 30 39 46 17 26 17 29 1 46 -10 10 -43 33 -74 49 -31 17 -66 38 -77 46 -19 14 -17 15 26 16 32 0 55 7 74 22 25 19 27 25 22 70 l-6 49 32 -27 c18 -15 59 -40 92 -55 l59 -29 -32 -6 c-25 -5 -30 -10 -22 -19 21 -26 102 -55 163 -60 l62 -5 -63 19 c-83 24 -94 36 -45 46 36 6 37 8 18 21 -27 18 -85 76 -85 84 0 4 25 5 55 2 50 -4 57 -2 85 26 34 34 38 67 15 112 -14 28 -14 29 11 32 l26 3 -21 27 -22 27 33 -11 c18 -6 48 -22 66 -35z m453 -29 c47 -92 128 -195 174 -220 52 -30 104 -36 158 -20 43 13 51 12 112 -10 42 -15 88 -24 128 -24 l62 -1 -30 -25 c-83 -71 -206 -99 -305 -70 -66 20 -82 9 -43 -29 l28 -27 -38 16 c-22 9 -61 34 -89 56 -64 51 -92 55 -68 9 20 -36 -7 -19 -62 39 -31 32 -68 82 -83 112 l-27 54 48 -43 c66 -58 176 -110 244 -116 l55 -5 -54 15 c-107 30 -231 118 -316 222 -42 51 -45 57 -28 66 10 6 34 23 53 39 19 15 37 28 41 28 4 0 22 -30 40 -66z m-246 -519 c38 -75 40 -84 40 -170 0 -106 -21 -158 -88 -224 -60 -60 -131 -84 -234 -79 -70 4 -89 9 -132 35 -49 31 -50 31 -53 10 -3 -21 -5 -20 -37 12 -34 37 -81 120 -81 146 0 26 -18 16 -22 -12 -4 -28 -4 -28 -21 9 -31 69 -19 210 23 260 l19 23 1 -50 c1 -27 7 -63 14 -80 l13 -30 22 44 c23 43 87 111 106 111 6 0 10 -17 11 -37 5 -203 14 -234 77 -274 67 -42 158 2 178 87 9 41 -5 139 -22 149 -5 4 -9 11 -9 17 0 15 132 139 144 135 6 -1 29 -38 51 -82z"/>
<path d="M521 1728 c-5 -13 -41 -90 -80 -172 -39 -81 -71 -150 -71 -153 0 -6 8 -3 289 94 177 61 254 92 277 113 l33 29 -29 6 c-16 4 -67 8 -112 10 l-83 3 69 -35 c37 -19 66 -37 63 -39 -3 -3 -79 32 -168 78 -90 46 -167 84 -171 86 -5 2 -12 -7 -17 -20z m91 -67 c87 8 84 -18 -7 -50 -69 -25 -86 -22 -78 9 3 11 0 20 -6 20 -6 0 -11 5 -11 10 0 6 9 10 19 10 11 0 23 5 26 10 5 8 11 8 20 0 7 -6 24 -10 37 -9z m26 -120 c2 -6 -8 -15 -21 -20 -14 -6 -28 -15 -32 -20 -11 -19 -28 -12 -22 9 5 18 0 20 -44 20 -38 0 -49 4 -49 16 0 13 12 15 82 11 47 -3 84 -10 86 -16z"/>
<path d="M566 1634 c-22 -22 -20 -24 16 -13 44 12 59 29 26 29 -15 0 -34 -7 -42 -16z"/>
<path d="M643 1710 c21 -12 43 -18 49 -14 6 4 8 3 5 -3 -4 -6 4 -15 16 -20 26 -12 96 -5 76 7 -7 5 -22 5 -34 0 -22 -9 -49 1 -43 15 3 8 -14 15 -77 28 -28 7 -28 6 8 -13z"/>
<path d="M440 1642 c-25 -31 -52 -68 -60 -84 -9 -16 -20 -25 -24 -21 -5 4 -6 1 -4 -7 3 -8 11 -14 17 -12 9 2 9 -3 1 -19 -9 -15 -15 -18 -24 -10 -15 13 -42 -11 -32 -27 3 -6 -1 -15 -9 -22 -13 -11 -14 -10 -9 5 10 26 -10 12 -36 -25 l-21 -30 55 0 56 0 46 98 c69 145 95 204 92 207 -2 1 -23 -23 -48 -53z m-33 -97 c-4 -8 -11 -15 -17 -15 -6 0 -6 7 2 20 14 22 24 19 15 -5z m-64 -91 c-4 -12 -8 -13 -14 -3 -9 15 -2 32 11 24 5 -3 6 -13 3 -21z"/>
<path d="M830 1545 c-19 -8 -131 -47 -248 -88 l-213 -73 200 -183 c111 -100 201 -185 201 -187 0 -10 -48 32 -228 197 l-177 163 -3 -203 c-1 -112 0 -206 2 -209 8 -7 400 38 409 47 8 8 117 508 117 539 0 15 -16 15 -60 -3z m-77 -115 c28 -22 47 -74 47 -127 0 -40 -30 -61 -66 -44 -49 22 -77 150 -39 178 24 17 28 17 58 -7z m-115 -37 c2 -7 -9 -18 -25 -24 l-28 -10 25 -19 c14 -11 28 -20 32 -20 4 0 14 -13 22 -28 20 -38 2 -76 -38 -80 -33 -4 -72 26 -56 42 7 7 14 6 22 -2 7 -7 20 -12 30 -12 27 0 22 36 -8 57 -14 10 -42 32 -62 50 l-37 31 35 15 c40 18 82 18 88 0z m-98 -238 c27 -29 24 -69 -6 -73 -12 -2 -24 -12 -27 -23 -8 -29 -51 -25 -76 7 -25 32 -26 44 -6 44 9 0 20 -11 25 -25 13 -35 43 -34 34 1 -6 23 -4 25 15 19 15 -4 23 -2 27 9 8 21 -13 46 -37 46 -11 0 -19 4 -19 8 0 28 39 20 70 -13z"/>
<path d="M715 1400 c-10 -16 24 -122 38 -117 18 6 20 51 3 91 -15 36 -29 45 -41 26z"/>
<path d="M851 1293 c-30 -142 -56 -264 -59 -272 -3 -7 19 2 49 21 37 24 54 41 53 55 0 18 2 19 18 10 27 -18 40 2 28 43 -6 19 -10 50 -10 67 0 36 -10 42 -30 18 -22 -27 -31 -1 -18 53 14 58 32 71 26 17 -2 -22 1 -36 9 -39 10 -4 13 8 13 48 0 29 7 75 15 102 19 64 19 64 -13 103 l-27 33 -54 -259z"/>
<path d="M350 1500 c0 -7 3 -10 7 -7 3 4 3 10 0 14 -4 3 -7 0 -7 -7z"/>
<path d="M240 1373 c2 -23 49 -165 50 -148 1 19 2 19 20 -4 11 -13 20 -28 20 -35 0 -6 -5 -3 -11 7 -10 17 -29 15 -29 -4 0 -6 5 -7 12 -3 7 5 9 2 6 -8 -5 -12 20 -124 36 -163 3 -5 5 74 5 178 l1 187 -55 0 c-30 0 -55 -3 -55 -7z m67 -55 c-2 -7 4 -30 15 -50 23 -48 17 -49 -11 -2 -23 39 -27 64 -10 64 6 0 9 -6 6 -12z m33 -188 c0 -5 -2 -10 -4 -10 -3 0 -8 5 -11 10 -3 6 -1 10 4 10 6 0 11 -4 11 -10z"/>
<path d="M899 1023 c-13 -15 -12 -15 9 -4 23 12 28 21 13 21 -5 0 -15 -7 -22 -17z"/>
<path d="M687 983 c-26 -2 -46 -7 -43 -11 2 -4 -32 -8 -75 -8 -43 -1 -96 -5 -116 -9 -36 -8 -33 -9 46 -22 58 -9 88 -10 96 -3 12 10 45 4 55 -11 5 -8 117 -29 152 -29 17 0 17 3 -1 48 -20 51 -23 52 -114 45z m0 -29 c-3 -3 -12 -4 -19 -1 -8 3 -5 6 6 6 11 1 17 -2 13 -5z m-100 -11 c-4 -3 -10 -3 -14 0 -3 4 0 7 7 7 7 0 10 -3 7 -7z m170 -3 c33 0 27 -5 -15 -13 -19 -4 -31 -3 -27 2 3 5 2 11 -2 14 -5 2 -2 2 5 0 8 -1 25 -3 39 -3z"/>
<path d="M1607 822 c-18 -4 -53 -60 -42 -70 8 -8 68 53 64 65 -2 5 -12 7 -22 5z"/>
</g>
<g id="layer106" fill="#b1b1b1" stroke="none">
<path d="M0 925 l0 -925 1360 0 1360 0 0 925 0 925 -1360 0 -1360 0 0 -925z m759 780 c118 -30 215 -55 216 -55 1 0 10 -18 20 -40 18 -39 19 -40 38 -23 20 18 20 17 13 -16 l-6 -34 52 52 c30 30 79 65 117 83 56 26 80 32 161 36 106 5 183 -14 263 -65 63 -39 149 -134 187 -204 l33 -63 -39 -34 c-21 -19 -54 -46 -72 -60 l-33 -25 -17 24 c-59 86 -153 160 -219 174 -71 15 -155 -32 -196 -109 -17 -32 -22 -58 -22 -116 1 -86 28 -156 92 -232 l36 -43 -37 -3 c-24 -2 -49 4 -72 17 -19 12 -37 21 -39 21 -6 0 12 -65 24 -88 6 -12 8 -22 3 -22 -15 0 -135 80 -171 114 l-34 31 7 -45 c3 -25 9 -62 12 -84 10 -54 -8 -45 -76 37 l-55 66 -60 -64 -60 -65 -235 36 c-129 20 -236 37 -237 38 -9 8 -129 444 -124 453 15 27 244 303 249 299 2 -3 -17 -31 -43 -63 -26 -32 -52 -70 -57 -85 -6 -16 -13 -26 -17 -24 -4 3 -8 -5 -8 -17 -2 -16 7 -8 27 26 17 26 32 47 35 47 9 0 -10 -36 -40 -76 -16 -23 -35 -49 -40 -59 -10 -16 -11 -16 -11 3 0 11 3 19 6 17 3 -2 6 5 6 15 0 14 -3 16 -13 8 -7 -6 -13 -16 -12 -22 3 -23 -1 -36 -11 -36 -5 0 -7 7 -4 15 10 25 -2 17 -31 -21 l-28 -37 57 6 c32 3 59 7 60 9 17 22 134 293 130 300 -7 11 34 58 50 58 6 0 107 -25 225 -55z m1642 -2 c29 -16 54 -34 56 -39 2 -5 -16 -9 -40 -9 -23 0 -57 -7 -76 -15 l-34 -14 62 -12 c77 -16 125 -45 158 -95 30 -46 41 -121 24 -172 -23 -68 -122 -137 -198 -137 -19 0 -18 3 13 34 59 59 42 130 -40 167 -41 19 -96 25 -96 12 0 -5 7 -17 15 -27 30 -40 13 -161 -28 -195 -15 -12 -17 -10 -17 18 0 41 -39 81 -79 81 -30 0 -61 -21 -216 -147 -49 -41 -86 -63 -103 -64 -67 -2 -76 -7 -94 -64 -14 -42 -15 -42 -115 -61 -12 -2 -29 -17 -37 -32 l-15 -27 -1 33 c0 28 9 43 50 82 35 34 50 56 50 74 0 56 27 92 138 184 74 62 114 102 121 124 6 17 11 68 11 113 0 93 19 134 77 168 l33 19 -16 -37 c-16 -39 -12 -85 11 -118 11 -16 13 -15 19 16 11 60 59 122 117 151 47 24 63 27 125 23 56 -3 83 -10 125 -34z m-864 -605 c28 -26 29 -38 3 -38 -16 0 -20 -7 -20 -34 0 -26 -5 -35 -21 -39 -22 -6 -22 -14 -4 -74 7 -21 4 -23 -26 -23 -50 -1 -16 -16 53 -24 31 -3 69 -1 84 4 22 9 26 15 21 39 -6 27 -3 29 31 35 55 8 82 31 82 68 l0 31 26 -24 c34 -31 64 -95 64 -139 0 -34 0 -34 -16 -12 -17 25 -44 29 -44 7 0 -9 -7 -18 -15 -21 -9 -4 -15 -19 -15 -37 0 -53 -36 -109 -133 -203 -84 -83 -105 -113 -133 -189 -6 -19 -7 -18 -14 5 -22 71 -15 88 73 174 46 44 89 91 96 104 7 13 -36 -23 -94 -80 -108 -104 -155 -167 -155 -206 0 -12 -4 -22 -9 -22 -14 0 -22 29 -28 102 -6 67 -6 68 29 100 19 18 43 47 53 63 l19 30 -35 -31 c-19 -17 -69 -52 -112 -78 -43 -26 -85 -59 -93 -72 -30 -45 -40 -10 -18 67 4 13 -4 15 -53 11 l-58 -5 38 42 c20 22 37 45 37 49 0 13 -28 34 -107 80 -40 23 -74 46 -77 50 -2 4 18 5 44 4 42 -3 53 0 76 23 23 23 26 32 20 72 l-6 45 41 -33 c22 -17 66 -42 97 -55 l56 -22 -37 -7 c-29 -6 -35 -10 -27 -20 18 -22 103 -53 160 -60 l55 -6 -59 20 c-75 25 -87 37 -47 46 35 8 40 21 11 30 -17 5 -70 63 -70 76 0 3 27 5 61 4 54 0 63 3 85 28 27 32 31 74 9 103 -21 27 -19 34 12 34 l26 0 -21 23 c-12 13 -22 26 -22 30 0 12 84 -24 107 -45z m533 -160 c60 -79 110 -108 188 -108 28 0 62 5 76 11 21 10 34 8 77 -10 30 -13 83 -25 126 -28 69 -6 73 -7 58 -23 -9 -10 -43 -32 -76 -50 -87 -46 -186 -51 -283 -14 -26 10 -19 -22 10 -45 15 -12 24 -21 20 -21 -20 0 -84 35 -128 70 -64 51 -92 55 -68 9 17 -30 -2 -22 -48 22 -44 43 -90 105 -110 151 -11 26 -7 24 43 -16 68 -56 169 -104 232 -112 l48 -5 -65 23 c-115 41 -219 117 -301 221 l-39 49 58 42 57 43 38 -71 c20 -39 60 -101 87 -138z m-350 -349 c62 -105 77 -223 40 -321 -43 -115 -132 -179 -260 -186 -86 -5 -142 7 -195 44 l-38 25 5 -25 c15 -77 -80 41 -128 159 -7 18 -8 17 -12 -7 -9 -73 -44 15 -44 113 0 56 5 80 28 127 l29 57 6 -65 c3 -36 10 -74 16 -85 11 -19 12 -19 23 9 15 40 62 98 97 118 l29 17 2 -52 c7 -166 10 -198 26 -222 22 -33 74 -65 106 -65 36 0 86 34 106 72 22 42 22 123 0 166 -12 24 -14 37 -6 51 14 26 123 121 135 118 5 -2 21 -23 35 -48z"/>
<path d="M495 1667 c-22 -45 -58 -122 -82 -171 -24 -49 -41 -91 -40 -93 4 -3 463 154 486 167 10 5 -37 34 -156 93 l-170 86 -38 -82z m147 -2 c23 -4 35 -10 32 -18 -5 -14 -73 -44 -122 -53 -32 -6 -33 -6 -26 20 4 16 2 26 -5 26 -6 0 -11 4 -11 8 0 12 52 30 75 26 11 -1 37 -6 57 -9z m2 -121 c3 -9 -8 -20 -32 -31 -20 -9 -41 -19 -46 -21 -5 -3 -7 5 -3 17 5 19 1 21 -43 21 -46 0 -67 9 -53 24 4 3 44 6 89 5 61 -1 84 -5 88 -15z"/>
<path d="M578 1643 c-21 -5 -24 -23 -4 -23 22 0 46 11 46 21 0 9 -13 10 -42 2z"/>
<path d="M649 1706 c14 -7 32 -11 40 -8 9 3 12 1 7 -6 -5 -8 -2 -10 10 -5 21 8 4 18 -46 27 -34 7 -34 6 -11 -8z"/>
<path d="M805 1627 l98 -49 30 30 30 30 -39 11 c-26 7 -40 7 -45 0 -4 -7 -26 -6 -70 3 -56 11 -60 14 -34 19 23 5 19 7 -19 6 l-49 0 98 -50z"/>
<path d="M833 1663 c4 -3 10 -3 14 0 3 4 0 7 -7 7 -7 0 -10 -3 -7 -7z"/>
<path d="M937 1593 l-26 -28 30 -35 c24 -29 30 -32 38 -20 7 9 7 18 1 24 -6 6 -10 19 -9 31 0 18 2 17 11 -5 6 -16 12 -20 15 -12 6 15 -16 72 -26 72 -4 0 -19 -12 -34 -27z"/>
<path d="M628 1473 c-137 -48 -248 -89 -248 -92 0 -11 391 -363 397 -358 5 6 112 502 113 525 0 6 -3 12 -7 11 -5 0 -119 -39 -255 -86z m130 -43 c12 -11 29 -45 38 -76 14 -50 14 -57 0 -79 -19 -30 -56 -33 -79 -7 -19 20 -47 95 -47 123 0 22 34 59 53 59 7 0 23 -9 35 -20z m-118 -40 c0 -13 -7 -20 -19 -20 -32 0 -32 -15 0 -34 16 -9 36 -31 45 -47 14 -28 14 -33 -1 -55 -19 -30 -65 -32 -90 -4 -17 18 -17 20 0 26 10 4 20 1 25 -6 10 -16 40 -6 40 15 0 8 -19 27 -42 42 -48 30 -78 58 -78 71 0 10 56 29 93 31 21 1 27 -4 27 -19z"/>
<path d="M716 1402 c-5 -9 18 -110 28 -119 2 -3 9 -2 15 2 15 9 14 46 -4 89 -15 35 -28 45 -39 28z"/>
<path d="M851 1290 c-30 -143 -52 -262 -50 -265 3 -2 26 10 52 26 39 24 47 34 42 50 -6 19 -5 20 15 9 30 -16 44 -1 30 34 -5 15 -10 45 -10 67 l0 39 -25 -16 c-14 -9 -29 -14 -32 -10 -10 9 20 117 32 116 6 0 9 -15 7 -33 -2 -24 0 -28 7 -17 6 8 11 29 11 46 0 17 7 53 15 80 19 64 19 64 -12 103 l-28 32 -54 -261z"/>
<path d="M244 1363 c4 -9 14 -46 23 -82 9 -36 18 -60 21 -53 6 19 18 14 30 -13 16 -35 15 -43 -3 -19 -17 23 -20 11 -3 -19 33 -63 38 -53 38 77 l0 126 -56 0 c-48 0 -55 -2 -50 -17z m66 -56 c1 -12 7 -33 15 -47 25 -43 16 -47 -10 -5 -24 40 -34 92 -15 80 6 -3 10 -16 10 -28z"/>
<path d="M363 1160 c-1 -164 1 -200 13 -200 17 0 377 40 385 43 7 2 -374 350 -388 354 -5 2 -9 -87 -10 -197z m150 18 c31 -16 46 -39 47 -70 0 -22 -5 -28 -23 -28 -13 0 -26 -9 -32 -22 -6 -12 -16 -23 -22 -26 -14 -4 -73 50 -73 67 0 19 32 12 37 -9 8 -30 40 -27 35 3 -3 14 2 18 19 15 38 -5 37 31 0 45 -17 6 -31 17 -31 24 0 16 15 17 43 1z"/>
<path d="M316 1113 c4 -16 13 -44 20 -63 l13 -35 0 50 c1 40 -3 53 -19 63 -19 12 -20 11 -14 -15z"/>
<path d="M945 1090 c-3 -5 -1 -10 4 -10 6 0 11 5 11 10 0 6 -2 10 -4 10 -3 0 -8 -4 -11 -10z"/>
<path d="M849 1031 c-48 -30 -55 -39 -49 -56 5 -11 13 -33 19 -49 l12 -29 30 29 c17 16 40 41 51 57 l20 27 -26 -11 c-38 -18 -44 -3 -12 30 41 43 19 44 -45 2z"/>
<path d="M905 1030 c-3 -5 -2 -10 4 -10 5 0 13 5 16 10 3 6 2 10 -4 10 -5 0 -13 -4 -16 -10z"/>
<path d="M695 980 c-48 -6 -49 -7 -25 -18 l25 -13 -25 8 c-31 9 -159 7 -208 -3 -35 -7 -33 -8 38 -19 86 -14 117 -9 74 11 -25 12 -26 13 -4 8 14 -4 48 -17 75 -29 28 -13 78 -26 112 -30 l63 -7 -21 51 c-14 34 -27 50 -38 49 -9 0 -38 -4 -66 -8z m63 -41 l27 -1 -25 -8 c-28 -9 -73 -12 -51 -3 11 5 11 7 0 15 -11 7 -9 8 4 4 10 -3 31 -6 45 -7z"/>
<path d="M1592 803 c-35 -35 -43 -60 -14 -44 27 15 54 49 50 63 -3 9 -15 2 -36 -19z"/>
</g>
<g id="layer107" fill="#d2d2d2" stroke="none">
<path d="M0 925 l0 -925 1360 0 1360 0 0 925 0 925 -1360 0 -1360 0 0 -925z m724 789 c100 -25 198 -50 219 -55 31 -8 40 -17 54 -50 15 -38 16 -39 34 -23 18 16 19 16 19 -9 0 -25 1 -25 48 20 26 25 76 60 112 77 61 29 72 31 180 31 95 0 124 -4 170 -23 103 -41 208 -142 270 -257 l25 -47 -65 -59 c-36 -32 -70 -59 -77 -59 -6 0 -21 15 -32 34 -29 46 -115 124 -156 142 -44 18 -128 18 -164 -1 -43 -22 -78 -69 -97 -130 -15 -46 -16 -64 -6 -115 13 -72 44 -137 90 -191 19 -22 32 -43 28 -46 -12 -12 -68 -4 -102 16 -34 20 -34 20 -34 0 0 -11 7 -35 14 -54 8 -19 12 -35 9 -35 -14 0 -101 55 -146 92 -27 22 -50 39 -51 37 -2 -2 1 -37 7 -77 5 -40 7 -76 3 -80 -8 -7 -50 38 -99 105 l-30 42 -61 -65 -61 -66 -130 21 c-71 11 -177 27 -235 36 -57 9 -106 18 -108 19 -1 2 -32 103 -68 225 l-65 222 103 127 c57 70 123 153 148 184 25 31 51 57 59 57 8 1 96 -19 195 -45z m1635 11 c44 -15 101 -51 101 -63 0 -4 -22 -8 -49 -8 -26 -1 -61 -8 -76 -16 l-28 -15 51 -6 c152 -18 242 -153 188 -282 -27 -64 -114 -125 -180 -125 l-34 0 34 34 c45 45 47 95 6 136 -27 26 -85 50 -124 50 -22 0 -22 -4 -2 -35 19 -30 22 -112 4 -146 -24 -46 -68 -83 -54 -44 10 25 -16 72 -45 85 -42 17 -69 5 -161 -72 -136 -113 -149 -121 -208 -133 -54 -11 -56 -13 -70 -54 -15 -44 -39 -61 -90 -61 -30 -1 -53 -15 -70 -45 -10 -18 -11 -17 -12 13 0 28 9 43 50 82 35 34 50 56 50 74 0 56 27 92 138 185 124 102 140 130 129 223 -3 25 -1 63 5 84 15 54 108 144 108 105 0 -6 -4 -13 -10 -16 -13 -8 -13 -91 1 -117 10 -19 13 -15 34 37 28 68 53 97 109 125 50 24 144 27 205 5z m-859 -600 c14 -7 36 -25 49 -39 l24 -26 -27 0 c-27 0 -28 -2 -24 -39 3 -35 1 -40 -17 -38 -22 2 -24 -14 -10 -65 6 -25 4 -28 -16 -28 -16 0 -20 -3 -12 -11 14 -14 140 -16 154 -2 6 6 8 21 4 34 -11 33 -10 34 48 37 35 2 67 35 67 69 l0 26 26 -24 c34 -31 64 -95 64 -138 l0 -35 -21 23 -21 22 -24 -26 c-13 -14 -24 -37 -24 -51 0 -49 -31 -97 -132 -202 -57 -59 -109 -120 -115 -137 -6 -16 -14 -39 -18 -50 l-7 -20 -8 20 c-5 11 -9 39 -9 62 -1 39 3 45 64 100 36 32 75 71 86 88 21 29 21 29 -17 -5 -152 -136 -204 -200 -204 -252 0 -15 -4 -28 -8 -28 -14 0 -32 73 -32 128 0 47 4 56 45 102 54 61 58 73 10 31 -20 -17 -52 -40 -73 -50 -54 -28 -103 -67 -123 -98 -16 -23 -19 -25 -25 -10 -6 17 -2 56 11 88 5 13 -3 15 -57 11 l-62 -5 37 33 c47 41 49 73 7 98 -16 9 -57 32 -90 51 -33 19 -60 37 -60 40 0 3 25 6 56 6 47 0 59 4 75 24 16 20 18 33 13 69 l-7 45 34 -26 c19 -14 63 -39 98 -56 63 -30 65 -36 11 -43 -23 -3 -21 -5 21 -31 25 -15 70 -31 99 -37 56 -11 82 -6 34 6 -16 4 -45 14 -64 22 l-35 15 39 11 39 11 -36 28 c-21 15 -44 41 -51 56 l-15 28 38 -10 c43 -12 79 -5 112 22 29 23 33 89 6 118 -25 28 -21 33 16 26 l32 -6 -30 32 -30 33 30 -8 c17 -4 41 -12 55 -19z m545 -152 c47 -64 88 -104 127 -124 42 -21 123 -25 162 -8 21 10 34 8 75 -10 28 -12 84 -24 126 -28 l76 -6 -21 -22 c-66 -70 -212 -103 -318 -72 -43 13 -52 14 -52 2 0 -7 12 -23 28 -34 17 -13 21 -20 12 -21 -22 0 -67 26 -126 71 -67 52 -94 52 -58 1 22 -31 5 -27 -39 9 -39 32 -110 129 -127 174 -10 26 -9 26 32 -8 66 -53 137 -94 197 -111 75 -22 99 -19 29 3 -79 26 -183 98 -267 186 -39 41 -71 79 -71 85 0 5 10 15 23 21 12 7 37 25 56 41 l34 30 37 -71 c20 -39 50 -87 65 -108z m-310 -403 c53 -105 62 -226 22 -314 -47 -103 -119 -157 -235 -177 -73 -13 -167 7 -220 48 l-35 26 5 -26 c7 -37 -3 -34 -46 13 -33 36 -59 84 -82 145 -6 17 -8 14 -14 -15 l-7 -35 -18 40 c-29 62 -26 176 6 239 31 62 46 68 41 18 -2 -21 2 -58 8 -82 l12 -43 25 44 c30 54 60 87 96 105 l27 15 2 -63 c4 -183 5 -187 32 -223 53 -70 151 -66 196 7 25 41 27 121 3 179 l-16 42 73 70 c82 79 77 80 125 -13z"/>
<path d="M453 1577 c-44 -95 -79 -173 -78 -174 2 -3 488 166 493 172 2 2 -73 42 -166 89 l-169 85 -80 -172z m197 89 c14 -2 25 -8 25 -14 0 -16 -72 -51 -118 -59 -37 -6 -38 -5 -31 21 4 16 2 26 -5 26 -6 0 -11 6 -11 14 0 23 35 26 140 12z m-3 -122 c2 -6 -14 -21 -37 -33 -50 -26 -50 -26 -50 -1 0 17 -7 20 -44 20 -43 0 -63 10 -49 24 12 11 176 2 180 -10z"/>
<path d="M588 1643 c-16 -2 -28 -9 -28 -14 0 -14 24 -11 46 6 10 8 17 14 14 13 -3 0 -17 -3 -32 -5z"/>
<path d="M645 1710 c27 -12 43 -12 25 0 -8 5 -22 9 -30 9 -10 0 -8 -3 5 -9z"/>
<path d="M433 1628 c-27 -35 -53 -72 -56 -83 -7 -20 -7 -20 8 -1 8 11 15 23 15 28 0 4 4 8 9 8 5 0 7 -10 4 -22 -7 -26 -43 -65 -56 -60 -5 1 -6 -2 -2 -8 9 -15 -21 -53 -45 -57 -11 -1 -20 2 -20 8 0 7 -9 0 -20 -14 -11 -14 -20 -27 -20 -29 0 -2 23 -1 52 2 l52 5 67 143 c37 78 67 142 65 142 -1 0 -25 -28 -53 -62z"/>
<path d="M758 1673 c6 -2 18 -2 25 0 6 3 1 5 -13 5 -14 0 -19 -2 -12 -5z"/>
<path d="M770 1653 c0 -5 30 -23 67 -42 l66 -32 29 29 30 29 -41 10 c-28 8 -41 8 -41 1 0 -10 -60 -5 -94 8 -9 3 -16 2 -16 -3z"/>
<path d="M937 1592 c-22 -24 -21 -31 7 -65 19 -24 24 -26 35 -13 8 10 9 16 1 21 -5 3 -10 16 -10 28 0 20 0 20 15 1 17 -22 19 -15 5 20 -11 31 -30 33 -53 8z"/>
<path d="M810 1535 c-36 -13 -146 -51 -245 -86 -99 -34 -182 -64 -185 -66 -3 -3 6 -14 20 -25 14 -11 68 -59 120 -107 261 -240 254 -235 262 -209 7 20 108 502 108 513 0 8 -12 5 -80 -20z m-51 -102 c25 -20 55 -124 46 -154 -7 -20 -46 -35 -70 -25 -8 3 -24 20 -34 37 -58 95 -14 201 58 142z m-121 -25 c19 -19 14 -28 -18 -40 l-30 -10 40 -29 c44 -32 58 -66 40 -98 -18 -34 -110 -23 -110 14 0 23 22 29 36 10 15 -20 44 -14 44 9 0 9 -26 33 -57 53 -73 49 -77 66 -21 86 56 19 62 19 76 5z"/>
<path d="M717 1393 c-9 -15 24 -104 36 -100 18 6 20 31 3 71 -14 34 -29 45 -39 29z"/>
<path d="M892 1483 c-6 -32 -29 -147 -52 -257 -23 -109 -40 -200 -38 -202 2 -1 25 11 51 28 36 23 46 35 42 49 -7 21 5 25 22 8 20 -20 31 -1 23 38 -5 21 -11 50 -15 65 -5 25 -8 27 -25 16 -29 -19 -34 -4 -20 62 13 62 22 72 39 43 9 -15 10 -13 11 13 0 17 7 54 15 82 15 50 15 53 -7 82 -12 16 -25 30 -28 30 -4 0 -11 -26 -18 -57z"/>
<path d="M355 1520 c3 -5 8 -10 11 -10 3 0 2 5 -1 10 -3 6 -8 10 -11 10 -3 0 -2 -4 1 -10z"/>
<path d="M317 1477 c-3 -7 -2 -19 3 -26 5 -10 8 -9 13 2 3 7 2 19 -3 26 -5 10 -8 9 -13 -2z"/>
<path d="M243 1367 c3 -7 13 -41 22 -74 10 -37 22 -60 29 -57 6 2 19 -9 28 -26 19 -33 13 -40 -8 -12 -12 15 -13 14 -4 -11 6 -16 17 -35 25 -43 13 -14 15 -1 15 110 l0 126 -56 0 c-42 0 -55 -3 -51 -13z m67 -54 c0 -16 7 -37 15 -47 8 -11 15 -27 15 -35 0 -9 -13 6 -29 33 -16 27 -27 55 -24 63 9 23 23 14 23 -14z"/>
<path d="M370 1160 l0 -202 38 6 c20 3 107 13 192 22 85 9 156 17 158 19 2 2 -47 48 -273 255 -22 20 -57 51 -77 69 l-38 33 0 -202z m143 21 c31 -12 60 -57 52 -81 -3 -10 -16 -22 -28 -26 -12 -4 -28 -15 -35 -25 -18 -26 -35 -24 -66 7 -31 32 -34 54 -6 54 11 0 20 -6 20 -14 0 -7 7 -20 16 -27 14 -11 16 -10 12 11 -2 21 1 25 22 25 41 1 38 33 -5 50 -20 9 -33 20 -30 25 8 12 17 12 48 1z"/>
<path d="M911 1294 c0 -11 3 -14 6 -6 3 7 2 16 -1 19 -3 4 -6 -2 -5 -13z"/>
<path d="M310 1138 c0 -2 9 -30 20 -63 l19 -60 0 50 c1 40 -3 53 -19 63 -11 7 -20 11 -20 10z"/>
<path d="M853 1032 c-29 -19 -53 -40 -53 -47 0 -15 30 -89 34 -84 1 2 24 28 51 57 41 45 45 51 22 41 -15 -7 -30 -10 -33 -6 -8 8 14 47 27 47 6 0 7 -4 4 -10 -4 -6 1 -7 11 -3 11 4 13 8 6 11 -7 2 -10 8 -7 12 14 22 -15 14 -62 -18z"/>
<path d="M713 983 c-29 -2 -53 -7 -53 -11 0 -9 80 -32 110 -32 11 0 20 4 20 9 0 16 -12 41 -19 39 -3 -1 -30 -3 -58 -5z"/>
<path d="M570 961 c0 -4 20 -14 45 -21 25 -7 45 -16 45 -20 0 -8 140 -33 147 -26 3 2 2 13 -2 24 -5 18 -10 19 -38 11 -35 -10 -82 -11 -57 -2 9 4 -7 13 -40 24 -60 20 -100 24 -100 10z"/>
<path d="M455 952 c-23 -4 -13 -8 45 -17 85 -13 108 -9 60 11 -33 14 -51 15 -105 6z"/>
<path d="M1590 802 c-35 -36 -41 -59 -10 -42 23 13 55 58 47 67 -3 3 -20 -8 -37 -25z"/>
</g>
<g id="layer108" fill="#fdfdfd" stroke="none">
<path d="M0 925 l0 -925 1360 0 1360 0 0 925 0 925 -1360 0 -1360 0 0 -925z m593 824 c20 -5 49 -12 65 -14 15 -3 92 -22 172 -43 142 -38 145 -39 166 -75 19 -34 21 -36 37 -20 16 16 17 15 17 -13 l0 -30 48 45 c129 124 330 153 493 71 32 -17 60 -29 62 -28 4 3 54 -49 104 -109 19 -24 40 -40 46 -36 5 3 7 1 4 -4 -4 -6 7 -35 23 -66 l30 -55 -77 -63 c-49 -39 -78 -58 -81 -50 -9 28 -90 116 -103 113 -8 -2 -11 0 -7 3 9 9 -23 35 -71 60 -50 26 -138 17 -184 -18 -85 -65 -105 -206 -46 -326 18 -36 49 -84 71 -107 l38 -41 -49 1 c-26 1 -60 10 -74 19 -15 9 -29 17 -32 17 -12 0 -4 -40 11 -54 8 -9 12 -16 8 -16 -3 0 -1 -7 6 -15 34 -41 -88 15 -147 68 -13 11 -23 17 -23 12 0 -5 -7 0 -15 11 -14 18 -14 18 -14 -11 0 -16 3 -47 8 -67 6 -25 5 -42 -3 -52 -9 -13 -19 -5 -59 47 -27 34 -52 69 -58 77 -7 12 -21 3 -72 -49 l-62 -64 -210 31 c-116 18 -220 34 -233 35 -30 4 -36 13 -54 77 -9 30 -28 96 -43 145 -14 50 -35 123 -46 163 l-19 73 55 72 c54 69 82 104 126 157 12 14 42 51 67 82 50 61 60 65 125 47z m1725 -14 c52 -7 109 -34 137 -65 l20 -23 -32 6 c-18 4 -33 3 -33 -2 0 -5 -9 -7 -19 -4 -10 3 -32 -2 -47 -11 l-29 -15 40 -1 c73 -1 155 -54 192 -123 33 -63 11 -181 -43 -228 -31 -28 -97 -56 -141 -63 -44 -6 -59 7 -22 19 22 7 59 60 59 86 0 63 -72 115 -154 110 -17 -1 -18 -3 -4 -18 21 -24 31 -74 22 -118 -8 -42 -48 -95 -72 -94 -11 0 -12 2 -4 6 35 14 -13 92 -61 97 -33 4 -68 -18 -187 -119 -103 -87 -117 -95 -169 -95 -38 0 -41 -2 -52 -41 -15 -48 -41 -69 -86 -69 -18 0 -33 -5 -33 -11 0 -5 -4 -8 -9 -4 -5 3 -19 -7 -30 -21 l-21 -27 0 36 c0 20 5 39 10 42 6 4 7 11 4 17 -4 6 -2 8 3 5 6 -4 27 9 47 29 29 28 36 42 36 74 0 32 8 49 43 89 23 27 47 50 52 50 21 2 148 126 162 158 9 23 11 50 7 83 -10 72 10 132 57 175 46 41 80 49 55 13 -19 -27 -22 -113 -4 -102 7 4 8 3 4 -4 -4 -7 -4 -17 0 -23 3 -6 14 13 24 43 30 88 136 164 215 152 11 -1 40 -5 63 -9z m-658 -539 c0 -3 -5 -8 -12 -12 -7 -4 -8 -3 -4 4 7 12 16 16 16 8z m-164 -65 c23 -10 49 -29 58 -42 16 -23 15 -24 -6 -30 -19 -4 -23 -12 -23 -42 0 -28 -4 -36 -14 -32 -23 9 -31 -17 -15 -53 17 -42 17 -42 -1 -42 -8 0 -15 -4 -15 -10 0 -6 30 -10 69 -10 60 0 69 2 74 20 3 11 1 23 -4 26 -5 3 -9 12 -9 20 0 10 12 14 45 14 55 0 90 28 82 67 -4 19 -1 23 12 17 9 -3 21 -7 28 -7 7 0 11 -3 10 -6 -1 -3 8 -26 20 -51 22 -46 38 -120 26 -120 -4 0 -16 9 -28 20 l-22 21 -18 -27 c-10 -15 -20 -43 -22 -63 -6 -51 -39 -97 -141 -198 -86 -86 -122 -139 -122 -182 0 -32 -17 -25 -24 10 -15 78 -10 89 77 178 l82 84 -81 -72 c-107 -96 -141 -142 -154 -211 l-7 -35 -17 37 c-9 22 -16 64 -16 102 0 63 1 66 43 106 l42 41 -93 -57 c-51 -31 -105 -72 -120 -90 -15 -19 -31 -34 -36 -34 -5 0 -6 25 -3 56 l6 56 -47 -4 c-26 -2 -50 -7 -54 -13 -5 -6 -8 -4 -8 4 0 7 15 28 34 45 38 36 43 74 11 91 -69 35 -155 87 -155 94 0 4 21 7 48 7 26 0 58 6 71 13 22 12 23 18 18 72 l-5 59 25 -20 c14 -11 30 -17 36 -13 5 3 7 2 4 -4 -7 -10 105 -73 130 -73 8 0 11 -4 8 -10 -3 -5 -21 -10 -38 -10 l-32 -1 29 -23 c27 -23 88 -46 117 -46 8 0 -6 10 -31 22 l-45 21 39 12 c24 7 35 14 28 19 -7 4 -18 4 -24 0 -7 -4 -10 -4 -6 1 4 4 -8 26 -27 48 -38 44 -44 63 -19 53 64 -25 126 -11 147 32 7 15 12 33 11 40 -1 6 -2 19 -3 28 0 9 -6 12 -13 8 -7 -5 -8 -3 -4 5 5 7 0 21 -11 33 -18 21 -18 21 15 16 39 -6 41 4 5 31 l-28 20 25 0 c14 1 44 -8 66 -18z m485 -43 c42 -83 88 -150 99 -143 5 3 12 0 16 -6 4 -8 3 -9 -4 -5 -24 15 -11 -10 23 -43 58 -56 142 -75 210 -47 30 13 37 12 72 -5 43 -21 127 -39 183 -39 24 0 43 -6 51 -17 13 -16 12 -17 -4 -4 -16 12 -20 11 -39 -9 -29 -31 -130 -77 -186 -85 -31 -4 -65 0 -97 9 -87 27 -115 14 -52 -25 l32 -20 -35 3 c-36 3 -66 21 -128 75 -48 43 -68 44 -47 3 8 -16 15 -32 15 -35 0 -12 -39 15 -71 49 -18 19 -35 33 -39 31 -4 -2 -7 1 -7 8 0 7 -15 37 -34 67 -53 85 -50 101 8 49 51 -45 128 -91 173 -103 14 -4 -1 8 -33 25 -67 37 -160 117 -223 192 l-43 50 43 29 c24 16 50 35 56 43 20 24 28 18 61 -47z m-249 -514 c100 -189 51 -387 -115 -469 -104 -50 -243 -40 -318 22 l-32 28 7 -28 c16 -67 -64 10 -108 103 -29 61 -31 63 -36 36 -4 -23 -7 -26 -16 -15 -51 65 -40 236 20 305 l22 27 0 -64 c0 -35 4 -73 11 -83 10 -18 12 -16 28 18 18 37 99 116 119 116 7 0 12 -41 14 -122 2 -89 7 -129 19 -149 37 -62 127 -79 176 -33 16 14 32 37 38 51 14 37 10 103 -10 151 l-17 43 70 70 c39 38 76 67 81 66 6 -2 27 -34 47 -73z"/>
<path d="M490 1654 c-22 -48 -40 -88 -40 -90 0 -2 -16 -36 -35 -75 -19 -40 -35 -76 -35 -79 0 -4 53 11 118 35 64 23 174 61 245 86 l127 44 -162 82 c-90 45 -166 82 -170 82 -4 1 -25 -38 -48 -85z m178 10 c29 -9 8 -33 -45 -52 -83 -30 -98 -31 -98 -6 -1 12 -7 29 -14 38 -14 17 -15 15 29 29 15 5 104 -1 128 -9z m-19 -119 c11 -11 9 -14 -10 -20 -13 -4 -32 -14 -41 -22 -18 -16 -54 -10 -43 7 3 6 -5 10 -19 10 -36 0 -81 19 -70 30 22 21 159 17 183 -5z"/>
<path d="M565 1630 c-8 -13 5 -13 25 0 13 8 13 10 -2 10 -9 0 -20 -4 -23 -10z"/>
<path d="M663 1703 c4 -3 10 -3 14 0 3 4 0 7 -7 7 -7 0 -10 -3 -7 -7z"/>
<path d="M434 1627 c-39 -50 -72 -102 -41 -64 20 24 30 21 22 -5 -3 -13 11 8 30 46 20 37 35 70 33 72 -2 2 -22 -20 -44 -49z"/>
<path d="M780 1653 c0 -10 104 -63 123 -63 8 0 24 11 36 24 l22 23 -23 7 c-33 8 -60 7 -54 -3 6 -9 -78 4 -95 14 -5 4 -9 2 -9 -2z"/>
<path d="M941 1590 l-23 -20 23 -35 c27 -39 50 -32 31 9 -13 29 2 45 17 19 14 -24 14 -10 -1 22 -13 30 -16 30 -47 5z"/>
<path d="M760 1514 c-69 -24 -126 -44 -127 -45 -2 -1 -6 -2 -10 -3 -26 -5 -233 -82 -233 -87 0 -12 315 -294 327 -293 7 1 11 -2 8 -6 -2 -4 9 -20 25 -35 27 -26 30 -27 31 -9 0 10 2 26 4 34 23 92 106 491 102 489 -1 0 -58 -20 -127 -45z m-5 -74 c4 -6 12 -7 18 -4 7 4 9 4 5 -1 -4 -4 -1 -19 6 -34 21 -40 29 -107 16 -130 -7 -14 -21 -21 -39 -21 -68 0 -121 130 -74 183 18 19 58 23 68 7z m-114 -36 c11 -14 10 -18 -6 -30 -10 -8 -23 -14 -28 -14 -5 0 -4 -7 4 -16 7 -8 21 -13 31 -11 10 3 16 1 12 -4 -3 -5 2 -19 10 -31 21 -29 20 -51 -3 -79 -16 -20 -23 -21 -51 -13 -40 11 -60 38 -43 55 10 10 17 8 33 -6 17 -16 23 -17 30 -6 12 21 3 36 -38 59 -46 25 -75 57 -70 73 4 12 60 36 89 38 9 0 23 -6 30 -15z"/>
<path d="M720 1384 c0 -28 23 -94 32 -94 15 0 19 26 8 55 -9 23 -13 26 -20 15 -6 -9 -10 -10 -10 -3 0 6 5 15 10 18 12 7 4 25 -11 25 -5 0 -9 -7 -9 -16z"/>
<path d="M906 1529 c-3 -8 -14 -59 -25 -114 -11 -55 -31 -152 -44 -215 -14 -63 -27 -129 -31 -147 l-5 -32 47 30 c40 25 46 34 43 57 -3 27 -3 27 18 8 32 -29 39 -9 21 62 -12 46 -19 59 -27 51 -17 -17 -47 -3 -38 19 4 9 12 36 17 60 7 29 15 42 27 42 12 0 20 14 29 53 18 77 18 82 4 79 -8 -1 -11 2 -7 8 3 5 -1 20 -9 32 -12 16 -16 18 -20 7z"/>
<path d="M388 1517 c-7 -8 -22 -30 -33 -50 -16 -30 -24 -36 -47 -33 -17 2 -34 -4 -44 -15 -16 -18 -15 -19 34 -19 50 0 52 1 72 41 11 23 17 46 14 50 -3 5 -1 9 4 9 6 0 12 7 16 15 7 19 2 19 -16 2z"/>
<path d="M250 1367 c0 -27 34 -126 41 -121 5 3 18 -10 29 -28 24 -39 26 -55 5 -38 -16 14 -20 3 -6 -19 5 -7 14 -10 20 -7 12 8 15 66 4 66 -15 0 -65 90 -59 105 8 22 26 18 26 -5 0 -21 26 -80 35 -80 3 0 5 32 5 70 l0 70 -50 -1 c-27 -1 -50 -7 -50 -12z"/>
<path d="M370 1160 c0 -187 1 -201 18 -197 9 3 97 13 196 23 l178 18 -39 36 c-22 19 -74 67 -117 105 -42 39 -81 69 -87 67 -6 -1 -8 2 -5 7 4 5 -6 19 -21 31 -16 12 -49 42 -75 66 l-48 45 0 -201z m174 -1 c14 -17 26 -38 26 -48 0 -20 -50 -68 -51 -48 0 6 -4 2 -10 -11 -7 -18 -15 -23 -35 -20 -31 4 -69 49 -61 72 7 18 37 11 37 -9 0 -7 7 -19 17 -26 15 -13 16 -11 9 14 -6 25 -4 27 24 27 16 0 30 3 30 7 0 14 -34 43 -52 43 -10 0 -18 7 -18 15 0 28 56 18 84 -16z"/>
<path d="M910 1290 c0 -7 3 -10 7 -7 3 4 3 10 0 14 -4 3 -7 0 -7 -7z"/>
<path d="M321 1109 c27 -86 27 -87 28 -43 1 29 -5 46 -19 59 -19 17 -19 17 -9 -16z"/>
<path d="M865 1039 c-16 -11 -29 -23 -28 -28 1 -5 -5 -8 -14 -7 -9 0 -18 -5 -21 -13 -3 -8 0 -11 6 -7 7 4 9 -2 6 -17 -2 -13 2 -31 9 -41 11 -15 16 -12 55 27 41 41 42 44 18 40 -33 -7 -34 12 -4 44 26 28 14 29 -27 2z"/>
<path d="M676 971 c-3 -4 21 -14 54 -21 33 -7 57 -17 54 -21 -9 -15 -74 -10 -90 6 -9 8 -26 15 -39 15 -13 0 -27 5 -30 10 -3 6 -15 10 -26 10 -10 0 -19 -4 -19 -10 0 -5 6 -10 13 -10 7 0 30 -9 51 -20 21 -10 59 -22 85 -26 25 -4 54 -8 64 -10 21 -4 21 -4 1 46 -16 39 -17 40 -64 40 -27 0 -51 -4 -54 -9z"/>
<path d="M470 951 c-21 -6 -18 -8 24 -14 27 -4 61 -7 75 -7 25 1 24 1 -8 15 -36 16 -52 17 -91 6z"/>
<path d="M1593 808 c-6 -7 -16 -23 -22 -35 -17 -33 10 -20 38 17 16 22 18 30 8 30 -8 0 -19 -6 -24 -12z"/>
<path d="M2153 783 c4 -3 10 -3 14 0 3 4 0 7 -7 7 -7 0 -10 -3 -7 -7z"/>
</g>


</svg>